<svg id="Capa_6" data-name="Capa 6" xmlns="http://www.w3.org/2000/svg" viewBox="0 0 810.41 445.63"><defs><style>.cls-1{fill:#fff;}</style></defs><title>fecha_blanco</title><path class="cls-1" d="M47.8,387.69a27.78,27.78,0,0,1,11,10.58,29.79,29.79,0,0,1,4,15.37,29.32,29.32,0,0,1-4,15.33,28.31,28.31,0,0,1-11.17,10.57,33.8,33.8,0,0,1-16.22,3.82H7.12V383.91H31.83A33.27,33.27,0,0,1,47.8,387.69Zm-5.9,43.15a17.77,17.77,0,0,0,6.84-7,22,22,0,0,0-.08-20.39,18,18,0,0,0-7-7,20,20,0,0,0-10-2.51H18.5v39.41H32.09A19.37,19.37,0,0,0,41.9,430.83Z"/><path class="cls-1" d="M72.77,383.91h43.57v9.94H84.15v14.69H113v9.94H84.15v14.95h33.21v9.94H72.77Z"/><path class="cls-1" d="M192.83,387.13a30.42,30.42,0,0,1,11.43,41.92,30.26,30.26,0,0,1-11.43,11.08,33.82,33.82,0,0,1-32.19,0,30.24,30.24,0,0,1-11.42-11.08,30.1,30.1,0,0,1,11.42-41.92,34.45,34.45,0,0,1,32.19,0Zm-26,8.88a20.35,20.35,0,0,0-7.35,27.82,20.51,20.51,0,0,0,7.39,7.39,19.5,19.5,0,0,0,10.07,2.72,19.12,19.12,0,0,0,9.94-2.72,20,20,0,0,0,7.26-7.39,20.32,20.32,0,0,0,2.67-10.28,20.09,20.09,0,0,0-2.67-10.23,19.77,19.77,0,0,0-7.26-7.3,19.38,19.38,0,0,0-9.94-2.68A20,20,0,0,0,166.8,396Z"/><path class="cls-1" d="M252,395.37a20.19,20.19,0,0,0-18.81.59,19.13,19.13,0,0,0-7.22,7.26,20.88,20.88,0,0,0,0,20.3,19.42,19.42,0,0,0,7.22,7.3,19.69,19.69,0,0,0,10.11,2.68,21.21,21.21,0,0,0,8.54-1.87,24.48,24.48,0,0,0,7.6-5.18l6.71,7.47a35.09,35.09,0,0,1-10.87,7.52,30.64,30.64,0,0,1-12.57,2.76A31.11,31.11,0,0,1,227,440.14a29.89,29.89,0,0,1-11.21-11.08,30.26,30.26,0,0,1-4.08-15.5,29.56,29.56,0,0,1,4.16-15.46,29.9,29.9,0,0,1,11.34-11,32.92,32.92,0,0,1,28.41-1.44,30.67,30.67,0,0,1,10.45,7.05l-6.62,8.32A22.41,22.41,0,0,0,252,395.37Z"/><path class="cls-1" d="M268.89,383.91h48.5V394H298.88v49.35H287.41V394H268.89Z"/><path class="cls-1" d="M339.73,429.94q4,4,10.7,4t10.58-4q3.86-4,3.86-11v-35h11.38v35a27.61,27.61,0,0,1-3.14,13.46,21.31,21.31,0,0,1-9,8.79,29.11,29.11,0,0,1-13.72,3.06,29.81,29.81,0,0,1-13.89-3.06,21.18,21.18,0,0,1-9-8.79,27.58,27.58,0,0,1-3.14-13.46v-35h11.38v35Q335.74,426,339.73,429.94Z"/><path class="cls-1" d="M431.08,387.9a12.74,12.74,0,0,1,5.48,10.87,13,13,0,0,1-10.36,13.16,15.36,15.36,0,0,1,9.3,5.1,14.93,14.93,0,0,1,3.35,9.94,14.14,14.14,0,0,1-5.9,12q-5.9,4.38-16.09,4.37H389.67V383.91h26.42Q425.6,383.91,431.08,387.9Zm-8.67,18.35a6.5,6.5,0,0,0,2.51-5.44,6.19,6.19,0,0,0-2.51-5.27,11,11,0,0,0-6.92-1.78H401.05V408.2h14.44A11,11,0,0,0,422.42,406.25ZM424,431.47a6.82,6.82,0,0,0,3.06-5.94,6.57,6.57,0,0,0-3.06-5.73q-3.06-2.08-8.49-2H401.05v15.72h14.44Q420.93,433.59,424,431.47Z"/><path class="cls-1" d="M487.09,443.36l-10.28-17.58a18.76,18.76,0,0,1-2.12.08H461.27v17.5H449.89V383.91h24.8q11.55,0,17.84,5.35t6.29,15.12a22.36,22.36,0,0,1-3,11.89,18.46,18.46,0,0,1-8.79,7.39l13.08,19.71Zm-25.82-27.52h13.42q6.46,0,9.85-2.8t3.4-8.32q0-5.44-3.4-8.15t-9.85-2.72H461.27Z"/><path class="cls-1" d="M511.3,383.91h43.57v9.94H522.68v14.69h28.88v9.94H522.68v14.95h33.21v9.94H511.3Z"/><path class="cls-1" d="M77.08,327.38v23.43H5.25V332.24l32.39-30a26.73,26.73,0,0,0,5.63-6.79A12.27,12.27,0,0,0,44.69,290a6.37,6.37,0,0,0-2.24-5.19q-2.24-1.86-6.47-1.86a14.56,14.56,0,0,0-7.68,2.18,14.3,14.3,0,0,0-5.51,6.15L0,279.87A37.39,37.39,0,0,1,15,264.7q9.86-5.57,23.82-5.57a48.08,48.08,0,0,1,18.82,3.46,29.43,29.43,0,0,1,12.8,9.86A24.56,24.56,0,0,1,75,287.17a31.41,31.41,0,0,1-3.14,13.89q-3.14,6.47-12.23,14.66l-12.8,11.65Z"/><path class="cls-1" d="M136.1,296.39a28.66,28.66,0,0,1,11.27,10.12,27,27,0,0,1,4.23,15A29,29,0,0,1,146.8,338a31.07,31.07,0,0,1-13.12,11,43.47,43.47,0,0,1-18.44,3.84q-12.93,0-22.6-5a35.3,35.3,0,0,1-15-14.85q-5.38-9.86-5.38-24.2,0-15.36,6.21-26.63A41.65,41.65,0,0,1,95.84,265q11.2-5.89,26.06-5.89A62.17,62.17,0,0,1,137.26,261a41.4,41.4,0,0,1,12.42,5.19L138.79,287.3q-6.66-4.74-16.26-4.74-7.81,0-12.87,3.91t-6.59,11.33q7-5,17.8-5A33.12,33.12,0,0,1,136.1,296.39Zm-16.26,33.16a8.75,8.75,0,0,0,2.56-6.66,9,9,0,0,0-2.56-6.72,10.13,10.13,0,0,0-13.32,0A9,9,0,0,0,104,322.9a8.74,8.74,0,0,0,2.56,6.66,10.33,10.33,0,0,0,13.32,0Z"/><path class="cls-1" d="M175,323.54q4.74,4.48,4.74,11.91a25.58,25.58,0,0,1-.9,6.66,68.88,68.88,0,0,1-4.1,10.12l-9,19.08H147.88l6.4-21.64a14.14,14.14,0,0,1-6.15-5.57,16.55,16.55,0,0,1-2.18-8.64q0-7.42,4.74-11.91a18.75,18.75,0,0,1,24.33,0Z"/><path class="cls-1" d="M274.13,327.38v23.43H202.3V332.24l32.39-30a26.73,26.73,0,0,0,5.63-6.79,12.27,12.27,0,0,0,1.41-5.51,6.37,6.37,0,0,0-2.24-5.19q-2.24-1.86-6.47-1.86a14.56,14.56,0,0,0-7.68,2.18,14.3,14.3,0,0,0-5.51,6.15L197,279.87a37.39,37.39,0,0,1,15-15.17q9.86-5.57,23.82-5.57a48.08,48.08,0,0,1,18.82,3.46,29.43,29.43,0,0,1,12.8,9.86,24.56,24.56,0,0,1,4.61,14.72,31.41,31.41,0,0,1-3.14,13.89q-3.14,6.47-12.23,14.66l-12.8,11.65Z"/><path class="cls-1" d="M344.93,261.18v18.57L315.1,350.81h-33l28.42-66.2H293.21v13.06h-25V261.18Z"/><path class="cls-1" d="M451.72,327.76l8.45,7.17-15.49,17.54-9.47-8.19a54.14,54.14,0,0,1-30,8.58,51.35,51.35,0,0,1-19.14-3.39,32.51,32.51,0,0,1-13.38-9.28,20.34,20.34,0,0,1-4.87-13.32,25.43,25.43,0,0,1,4.23-14.66Q376.3,306,385.26,301q-7.68-8.19-7.68-17.16a20.61,20.61,0,0,1,4-12.61,26.5,26.5,0,0,1,11.33-8.51,43.27,43.27,0,0,1,16.9-3.07,40.82,40.82,0,0,1,15.56,2.75,23.33,23.33,0,0,1,10.43,7.94,20,20,0,0,1,3.71,12,20.37,20.37,0,0,1-3.78,12.1q-3.78,5.31-11.72,9.79l9.47,8.07A49.09,49.09,0,0,0,437,300.62l23.18,6.91A61.2,61.2,0,0,1,451.72,327.76Zm-34.19,1.41-16.39-14.08q-5,3.59-5,8.58a6.56,6.56,0,0,0,3,5.51q3,2.18,8.26,2.18A25.09,25.09,0,0,0,417.53,329.17Zm-12.1-49.42a4.7,4.7,0,0,0-1.6,3.71,6,6,0,0,0,1,3.2,22.7,22.7,0,0,0,3.52,4q7-3.84,7-7.68a4.3,4.3,0,0,0-1.41-3.33,5.7,5.7,0,0,0-4-1.28A6.66,6.66,0,0,0,405.43,279.75Z"/><path class="cls-1" d="M555.81,327.38v23.43H484V332.24l32.39-30A26.73,26.73,0,0,0,522,295.5a12.27,12.27,0,0,0,1.41-5.51,6.37,6.37,0,0,0-2.24-5.19q-2.24-1.86-6.47-1.86a14.56,14.56,0,0,0-7.68,2.18,14.3,14.3,0,0,0-5.51,6.15l-22.79-11.4a37.39,37.39,0,0,1,15-15.17q9.86-5.57,23.82-5.57a48.08,48.08,0,0,1,18.82,3.46,29.43,29.43,0,0,1,12.8,9.86,24.56,24.56,0,0,1,4.61,14.72,31.41,31.41,0,0,1-3.14,13.89q-3.14,6.47-12.23,14.66l-12.8,11.65Z"/><path class="cls-1" d="M627.71,312.33a22.43,22.43,0,0,1,3.14,11.84,24,24,0,0,1-5.06,15.11,32,32,0,0,1-14.21,10.05,64,64,0,0,1-41.87,0,31.94,31.94,0,0,1-14.21-10.05,24,24,0,0,1-5.06-15.11,22.42,22.42,0,0,1,3.14-11.84,26.52,26.52,0,0,1,8.9-8.77q-8.84-7-8.83-17.67a22.3,22.3,0,0,1,4.67-14.08,30.16,30.16,0,0,1,13.06-9.35,57.42,57.42,0,0,1,38.54,0A30.18,30.18,0,0,1,623,271.81a22.31,22.31,0,0,1,4.67,14.08q0,10.63-8.83,17.67A26.54,26.54,0,0,1,627.71,312.33Zm-30,17.61a9.74,9.74,0,0,0,0-13.57,11.14,11.14,0,0,0-14.21,0,9.74,9.74,0,0,0,0,13.57,11.14,11.14,0,0,0,14.21,0Zm-12.29-48.4a9,9,0,0,0,0,11.27,7.59,7.59,0,0,0,10.37,0,9,9,0,0,0,0-11.27,7.59,7.59,0,0,0-10.37,0Z"/><path class="cls-1" d="M380.06,250.94a4.77,4.77,0,0,1-4.77-4.77V100.86a32.26,32.26,0,0,1,32.22-32.22,4.77,4.77,0,0,1,0,9.53,22.72,22.72,0,0,0-22.69,22.69V246.17A4.77,4.77,0,0,1,380.06,250.94Z"/><path class="cls-1" d="M778.19,445.63H592.85a4.77,4.77,0,0,1,0-9.53H778.19a22.72,22.72,0,0,0,22.69-22.69V100.86a22.72,22.72,0,0,0-22.69-22.69,4.77,4.77,0,1,1,0-9.53,32.26,32.26,0,0,1,32.22,32.22V413.41A32.26,32.26,0,0,1,778.19,445.63Z"/><path class="cls-1" d="M682.09,78.17H503.61a4.77,4.77,0,0,1,0-9.53H682.09a4.77,4.77,0,0,1,0,9.53Z"/><path class="cls-1" d="M805.64,160.54H380.06a4.77,4.77,0,0,1-4.77-4.77V100.86a32.26,32.26,0,0,1,32.22-32.22h54.91a4.77,4.77,0,1,1,0,9.53H407.51a22.72,22.72,0,0,0-22.69,22.69V151H800.88V100.86a22.72,22.72,0,0,0-22.69-22.69H723.27a4.77,4.77,0,1,1,0-9.53h54.91a32.26,32.26,0,0,1,32.22,32.22v54.91A4.77,4.77,0,0,1,805.64,160.54Z"/><path class="cls-1" d="M462.43,245.54H421.24a4.77,4.77,0,0,1-4.77-4.77V199.59a4.77,4.77,0,0,1,4.77-4.77h41.19a4.77,4.77,0,0,1,4.77,4.77v41.19A4.77,4.77,0,0,1,462.43,245.54ZM426,236h31.66V204.36H426Z"/><path class="cls-1" d="M613.44,245.54H572.26a4.77,4.77,0,0,1-4.77-4.77V199.59a4.77,4.77,0,0,1,4.77-4.77h41.19a4.77,4.77,0,0,1,4.77,4.77v41.19A4.77,4.77,0,0,1,613.44,245.54ZM577,236h31.66V204.36H577Z"/><path class="cls-1" d="M689,245.54H647.77a4.77,4.77,0,0,1-4.77-4.77V199.59a4.77,4.77,0,0,1,4.77-4.77H689a4.77,4.77,0,0,1,4.77,4.77v41.19A4.77,4.77,0,0,1,689,245.54ZM652.53,236h31.66V204.36H652.53Z"/><path class="cls-1" d="M764.46,245.54H723.27a4.77,4.77,0,0,1-4.77-4.77V199.59a4.77,4.77,0,0,1,4.77-4.77h41.19a4.77,4.77,0,0,1,4.77,4.77v41.19A4.77,4.77,0,0,1,764.46,245.54ZM728,236h31.66V204.36H728Z"/><path class="cls-1" d="M537.94,245.54H496.75a4.77,4.77,0,0,1-4.77-4.77V199.59a4.77,4.77,0,0,1,4.77-4.77h41.19a4.77,4.77,0,0,1,4.77,4.77v41.19A4.77,4.77,0,0,1,537.94,245.54ZM501.52,236h31.66V204.36H501.52Z"/><path class="cls-1" d="M764.46,323.68H723.27a4.77,4.77,0,0,1-4.77-4.77V277.73a4.77,4.77,0,0,1,4.77-4.77h41.19a4.77,4.77,0,0,1,4.77,4.77v41.19A4.77,4.77,0,0,1,764.46,323.68ZM728,314.15h31.66V282.5H728Z"/><path class="cls-1" d="M689,404.45H647.77a4.77,4.77,0,0,1-4.77-4.77V358.5a4.77,4.77,0,0,1,4.77-4.77H689a4.77,4.77,0,0,1,4.77,4.77v41.19A4.77,4.77,0,0,1,689,404.45Zm-36.42-9.53h31.66V363.26H652.53Z"/><path class="cls-1" d="M764.46,404.45H723.27a4.77,4.77,0,0,1-4.77-4.77V358.5a4.77,4.77,0,0,1,4.77-4.77h41.19a4.77,4.77,0,0,1,4.77,4.77v41.19A4.77,4.77,0,0,1,764.46,404.45ZM728,394.92h31.66V363.26H728Z"/><path class="cls-1" d="M599.72,133.09H586a4.77,4.77,0,1,1,0-9.53h13.73a4.77,4.77,0,0,1,0,9.53Z"/><path class="cls-1" d="M627.17,133.09H613.44a4.77,4.77,0,1,1,0-9.53h13.73a4.77,4.77,0,0,1,0,9.53Z"/><path class="cls-1" d="M572.26,133.09H558.53a4.77,4.77,0,1,1,0-9.53h13.73a4.77,4.77,0,1,1,0,9.53Z"/><path class="cls-1" d="M483,119.36A25.39,25.39,0,0,1,457.66,94V25.36a25.36,25.36,0,1,1,50.72,0V94A25.39,25.39,0,0,1,483,119.36ZM483,9.53a15.85,15.85,0,0,0-15.83,15.83V94a15.83,15.83,0,0,0,31.66,0V25.36A15.85,15.85,0,0,0,483,9.53Z"/><path class="cls-1" d="M702.68,119.36A25.39,25.39,0,0,1,677.32,94V25.36a25.36,25.36,0,0,1,50.72,0V94A25.39,25.39,0,0,1,702.68,119.36Zm0-109.83a15.85,15.85,0,0,0-15.83,15.83V94a15.83,15.83,0,1,0,31.66,0V25.36A15.85,15.85,0,0,0,702.68,9.53Z"/><path class="cls-1" d="M675.7,285.55c0-.42-3.3-.88-7.36-.88s-7.36.46-7.36.88,3.3.88,7.36.88S675.7,286,675.7,285.55Z"/><circle class="cls-1" cx="665.14" cy="271.9" r="4.21"/><circle class="cls-1" cx="671.7" cy="277.75" r="3.01"/><path class="cls-1" d="M689.87,326.23,676.77,294l3.75-9.91a1,1,0,0,0-.61-1.26,42,42,0,0,0-11.56-1.54h-1a2.38,2.38,0,1,0-4.27.29,37.11,37.11,0,0,0-6.33,1.23,1,1,0,0,0-.61,1.26l3.83,10-13.16,32.13a1.21,1.21,0,0,0-.07.47c0,1.09,1.35,1.3,2.44,1.46s2.58.3,4.5.43c3.91.25,9.11.39,14.64.39s10.73-.14,14.64-.39c1.92-.12,3.43-.27,4.5-.43s2.44-.37,2.44-1.46A1.71,1.71,0,0,0,689.87,326.23Zm-21.51.81c-10.66,0-17.32-.47-19.41-.87l13-31.7a1,1,0,0,0,0-.71l-3.59-9.32a42.83,42.83,0,0,1,20,0l-3.51,9.27a1,1,0,0,0,0,.7l12.92,31.75C685.68,326.56,679,327,668.36,327Z"/><path class="cls-1" d="M684.9,324.54l-3.55-8.72v-1.74a5.37,5.37,0,0,0-1.53-3.83,5.28,5.28,0,0,0-.86-.72l-6.1-15.29s0-.11-.1-.11c-1.23.12-2.75.19-4.4.19s-3.18-.08-4.4-.19c-.06,0-.09.07-.11.11l-4.56,11.36a5.36,5.36,0,0,0-2.22,4.42v1.45l-5.26,13.07a42,42,0,0,0,7,.5V310a3.5,3.5,0,1,1,7,0v5.55a5.35,5.35,0,0,0-3.1,4.91v4.77h1.79v-4.77a3.42,3.42,0,0,1,6.84,0v4.76h2v-4.76a5.27,5.27,0,0,0-.87-2.89c0-1.17,0-3.64,0-3.62a3.57,3.57,0,0,1,7.12,0s0,10.86,0,11.1A40.11,40.11,0,0,0,684.9,324.54Zm-12-14.85a4.93,4.93,0,0,0-1.41,1.45,5.41,5.41,0,0,0-.75,1.81,5.33,5.33,0,0,0-.12,1.12v1.73a5.79,5.79,0,0,0-2.58-.63h-.35V310a5,5,0,0,0-1.63-3.85v-2.65a3.83,3.83,0,0,1,7.66,0v5.73h0A4.2,4.2,0,0,0,672.87,309.69Z"/><circle class="cls-1" cx="660.83" cy="310.93" r="0.94" transform="translate(-1.16 2.47) rotate(-0.21)"/><circle class="cls-1" cx="663.86" cy="310.93" r="0.94" transform="translate(-1.25 2.67) rotate(-0.23)"/><circle class="cls-1" cx="668.41" cy="303.82" r="0.94" transform="translate(-1.15 2.54) rotate(-0.22)"/><circle class="cls-1" cx="671.45" cy="303.82" r="0.94" transform="translate(-1.15 2.55) rotate(-0.22)"/><circle class="cls-1" cx="674.56" cy="315" r="0.94" transform="translate(-1.23 2.64) rotate(-0.22)"/><circle class="cls-1" cx="677.6" cy="315" r="0.94" transform="translate(-1.28 2.77) rotate(-0.23)"/><circle class="cls-1" cx="666.61" cy="320.3" r="0.89" transform="matrix(1, 0, 0, 1, -1.25, 2.61)"/><circle class="cls-1" cx="669.47" cy="320.3" r="0.89" transform="translate(-1.34 2.82) rotate(-0.24)"/><path class="cls-1" d="M670,307.49a3.2,3.2,0,0,1-1.69-.48.53.53,0,1,1,.56-.9,2.15,2.15,0,0,0,2.26,0,.53.53,0,1,1,.56.9A3.2,3.2,0,0,1,670,307.49Z"/><path class="cls-1" d="M662.38,314.69a3.2,3.2,0,0,1-1.69-.48.53.53,0,0,1,.56-.9,2.15,2.15,0,0,0,2.26,0,.53.53,0,1,1,.56.9A3.2,3.2,0,0,1,662.38,314.69Z"/><path class="cls-1" d="M668,323.86a3.19,3.19,0,0,1-1.69-.48.53.53,0,1,1,.56-.9,2.15,2.15,0,0,0,2.26,0,.53.53,0,1,1,.56.9A3.2,3.2,0,0,1,668,323.86Z"/><path class="cls-1" d="M676.09,318.78a3.2,3.2,0,0,1-1.69-.48.53.53,0,1,1,.56-.9,2.15,2.15,0,0,0,2.26,0,.53.53,0,0,1,.56.9A3.2,3.2,0,0,1,676.09,318.78Z"/><path class="cls-1" d="M38.29,213.88l-1,8.73h7.58v7.82H36.28l-1.15,9H26.89l1.15-9H20.58l-1.15,9H11.18l1.15-9H4.69v-7.82H13.3l1-8.73H6.69v-7.82H15.3l1.15-9H24.7l-1.15,9H31l1.15-9h8.25l-1.15,9h7.64v7.82Zm-8.25,0H22.58l-1,8.73H29Z"/><path class="cls-1" d="M57.08,239a24.56,24.56,0,0,1-7.88-3.4l3.94-8.85a25.44,25.44,0,0,0,6.61,3,25.14,25.14,0,0,0,7.4,1.15q6.91,0,6.91-3.46a2.86,2.86,0,0,0-2-2.7A36.22,36.22,0,0,0,65.75,223a60.57,60.57,0,0,1-8-2.21A13.48,13.48,0,0,1,52.23,217a10.24,10.24,0,0,1-2.3-7,12.18,12.18,0,0,1,2.12-7A14.2,14.2,0,0,1,58.38,198a26.08,26.08,0,0,1,10.34-1.82,36.51,36.51,0,0,1,8.25.94,25.27,25.27,0,0,1,7.15,2.76l-3.7,8.91a24.72,24.72,0,0,0-11.76-3.27,9.86,9.86,0,0,0-5.21,1.06,3.18,3.18,0,0,0-1.64,2.76,2.74,2.74,0,0,0,1.94,2.55A35,35,0,0,0,70,213.64a58.59,58.59,0,0,1,8,2.21,13.89,13.89,0,0,1,5.52,3.76,10,10,0,0,1,2.33,7,11.94,11.94,0,0,1-2.12,6.91,14.47,14.47,0,0,1-6.37,4.94,25.76,25.76,0,0,1-10.31,1.85A39.2,39.2,0,0,1,57.08,239Z"/><path class="cls-1" d="M158,197l-13.76,42.44H131.36l-8.12-25.83-8.49,25.83H101.89L88.12,197h12.37l8.55,27.1,9-27.1h11l8.55,27.35L146.51,197Z"/><path class="cls-1" d="M180.83,228.19h-6.55v11.28h-12V197h19.4a24.2,24.2,0,0,1,10,1.91,15.44,15.44,0,0,1,6.7,21.83,14.55,14.55,0,0,1-6.15,5.37l9.16,13.34H188.53Zm5.7-20.07a8.28,8.28,0,0,0-5.58-1.64h-6.67v12.43H181a8.39,8.39,0,0,0,5.58-1.61,5.7,5.7,0,0,0,1.88-4.58A5.79,5.79,0,0,0,186.53,208.12Z"/><path class="cls-1" d="M237.77,229.95v9.52h-33v-7.52l15.89-14.86a15.18,15.18,0,0,0,3.09-3.73,6.82,6.82,0,0,0,.79-3.12,3.94,3.94,0,0,0-1.39-3.21,6.25,6.25,0,0,0-4.06-1.15,9,9,0,0,0-4.34,1.06,8.71,8.71,0,0,0-3.24,3.06l-8.91-5a17.43,17.43,0,0,1,7-6.49,22.46,22.46,0,0,1,10.61-2.36,21.88,21.88,0,0,1,8.58,1.58,13.29,13.29,0,0,1,5.82,4.52,11.47,11.47,0,0,1,2.09,6.82,14.74,14.74,0,0,1-1.49,6.52,25,25,0,0,1-5.73,6.94l-8,7.4Z"/><path class="cls-1" d="M250.26,237.71a17.52,17.52,0,0,1-6.64-7.61,30.52,30.52,0,0,1,0-23.71,17.53,17.53,0,0,1,6.64-7.61,19.25,19.25,0,0,1,19.34,0,17.55,17.55,0,0,1,6.64,7.61,30.52,30.52,0,0,1,0,23.71,17.54,17.54,0,0,1-6.64,7.61,19.24,19.24,0,0,1-19.34,0Zm14.52-10.16q1.79-2.94,1.79-9.31t-1.79-9.31a5.47,5.47,0,0,0-9.7,0q-1.79,2.94-1.79,9.31t1.79,9.31a5.47,5.47,0,0,0,9.7,0Z"/><path class="cls-1" d="M300.46,197v42.44h-12V206.3h-7.88V197Z"/><path class="cls-1" d="M341.88,221.28a10.42,10.42,0,0,1,1.58,5.7,11.3,11.3,0,0,1-2.3,7,14.58,14.58,0,0,1-6.49,4.67,29.21,29.21,0,0,1-19.28,0,14.57,14.57,0,0,1-6.49-4.67,11.29,11.29,0,0,1-2.3-7,10.41,10.41,0,0,1,1.58-5.7,12.85,12.85,0,0,1,4.49-4.18,10.64,10.64,0,0,1-3.37-3.7,10,10,0,0,1-1.18-4.85,10.54,10.54,0,0,1,2.12-6.52,13.38,13.38,0,0,1,6-4.33,26.43,26.43,0,0,1,17.64,0,13.39,13.39,0,0,1,6,4.33,10.54,10.54,0,0,1,2.12,6.52,10,10,0,0,1-1.18,4.85,10.65,10.65,0,0,1-3.37,3.7A12.85,12.85,0,0,1,341.88,221.28Zm-12.22,9.19a5.15,5.15,0,0,0,0-7.7,8.26,8.26,0,0,0-9.28,0,5.15,5.15,0,0,0,0,7.7,8.26,8.26,0,0,0,9.28,0Zm-8.28-24.68a4.58,4.58,0,0,0,0,6.55,5.41,5.41,0,0,0,3.67,1.18,5.53,5.53,0,0,0,3.7-1.18,4,4,0,0,0,1.39-3.24,4.1,4.1,0,0,0-1.39-3.3,5.52,5.52,0,0,0-3.7-1.18A5.43,5.43,0,0,0,321.38,205.79Z"/></svg>