<svg id="Capa_1" data-name="Capa 1" xmlns="http://www.w3.org/2000/svg" viewBox="0 0 1452.36 371.73"><defs><style>.cls-1{fill:#fff;}</style></defs><title>Logo StartupWeekend_blanco</title><path class="cls-1" d="M1434,167.55v3.35h-4.66v12.2h-4.06V170.9h-4.61v-3.35Z"/><path class="cls-1" d="M1439.68,167.55l4.13,9.07,4.13-9.07h4.44V183.1h-3.59l0-9.85-3.61,8.3h-2.66l-3.61-8.3v9.85h-3.62V167.55Z"/><path class="cls-1" d="M461.76,221.75V275.9H434.84v-9.38c-5.38,6.92-13.84,10.61-25.07,10.61-17.84,0-28.46-10.77-28.46-26,0-15.85,11.23-24.92,31.84-25.23h21.69V225c0-7.85-5.38-12.46-15.85-12.46-6.92,0-16,2.31-24.92,6.62l-7.54-18.46c13.08-5.85,25.08-9.08,38.77-9.08C448.23,191.6,461.61,202.67,461.76,221.75Zm-26.92,26v-7.23H418.54c-7.69,0-11.54,2.77-11.54,8.62,0,5.69,4.15,9.38,11.23,9.38C426.38,258.52,433.15,254.05,434.84,247.75Z"/><path class="cls-1" d="M580,272.43C574,276,565.71,278,557.56,278c-16.15.15-27.84-9.38-27.84-26.61v-76.7h27.23v22.86h21.54v19.66H556.94v29.88c0,6.15,2.77,8.92,7.54,8.77,2.77,0,6.31-1.08,10.31-2.77Z"/><path class="cls-1" d="M523.16,192.57v25.07c-15.23-1.54-25.38,5.23-26.77,16.77v42.46H469V193.65H496.4v13.84C502.09,198,511.47,192.57,523.16,192.57Z"/><path class="cls-1" d="M668.52,195.39v83.22H641.14V265.07c-5.69,9.69-14.77,14.61-26.61,14.77-18,0-29.69-12.46-29.69-31.84V195.39h27.38v44.76c0,9.38,5.23,15.08,13.38,15.08,9.69-.15,15.54-7.85,15.54-18.77V195.39Z"/><path class="cls-1" d="M328.92,174.66h27.23v22.86h21.54v19.83H356.15v29.71c0,6.15,2.77,8.92,7.54,8.77,2.77,0,6.31-1.08,10.31-2.77l5.23,19.38c-6,3.54-14.31,5.54-22.46,5.54-16.15.15-27.84-9.38-27.84-26.61Z"/><path class="cls-1" d="M766.79,237.7c0,25.38-15.07,42.15-38.15,42.15-10.62,0-19.23-4.15-25.08-11.69v40.61H676.19V195.71h27.38v10.77c5.85-7.54,14.15-11.69,24.46-11.69C751.26,194.78,766.79,211.86,766.79,237.7Zm-27.54-.62c0-12.31-7.23-20.77-18-20.77-10.46,0-17.69,8.46-17.69,20.77s7.23,20.61,17.69,20.61C732,257.7,739.26,249.4,739.26,237.09Z"/><path class="cls-1" d="M249.36,264.45l11-17.9c9.65,6.38,20.23,9.65,28.95,9.65,5.14,0,7.47-1.56,7.47-4.51v-.31c0-3.27-4.67-4.67-13.54-7.16-16.65-4.36-29.88-10-29.88-26.92V217c0-17.9,14.32-27.86,33.77-27.86,12.29,0,25.06,3.58,34.7,9.8L311.77,217.6c-8.72-4.82-18.21-7.78-24.9-7.78-4.51,0-6.85,1.71-6.85,4v.31c0,3.27,4.82,4.82,13.7,7.47,16.65,4.67,29.88,10.43,29.88,26.77v.31c0,18.52-13.85,28.17-34.39,28.17A67.91,67.91,0,0,1,249.36,264.45Z"/><path class="cls-1" d="M968.42,242.1H909.86c2.65,9.5,9.66,14.79,19.16,14.79a27.93,27.93,0,0,0,19.78-8.57l14.48,14.49c-8.57,9.66-21.18,15-36.75,15-27.57,0-44.54-17-44.54-42.67,0-26.17,17.6-43.45,43.92-43.45C955.34,191.64,970.29,211.42,968.42,242.1Zm-26.79-14.8c0-9.66-6.23-16.2-15.57-16.2-9,0-15,6.54-16.82,16.2Z"/><path class="cls-1" d="M1059.06,242.09H1000.5c2.65,9.5,9.66,14.8,19.16,14.8a27.93,27.93,0,0,0,19.78-8.57l14.48,14.49c-8.57,9.66-21.18,15-36.75,15-27.57,0-44.54-17-44.54-42.67,0-26.17,17.6-43.45,43.92-43.45C1046,191.63,1060.93,211.41,1059.06,242.09Zm-26.79-14.8c0-9.66-6.23-16.2-15.57-16.2-9,0-15,6.54-16.82,16.2Z"/><polygon class="cls-1" points="1145.87 196.14 1112.37 196.14 1091.82 219.45 1091.82 167.69 1064.1 167.69 1064.1 277.79 1091.82 277.79 1091.82 254.9 1091.82 247.71 1113.36 276.65 1144.32 276.65 1113.36 233.87 1145.87 196.14"/><path class="cls-1" d="M1222.74,243.06h-58.56c2.65,9.5,9.66,14.79,19.16,14.79a27.93,27.93,0,0,0,19.78-8.57l14.48,14.49c-8.57,9.66-21.18,15-36.75,15-27.57,0-44.54-17-44.54-42.67,0-26.17,17.6-43.45,43.92-43.45C1209.66,192.6,1224.61,212.38,1222.74,243.06ZM1196,228.27c0-9.66-6.23-16.2-15.57-16.2-9,0-15,6.54-16.82,16.2Z"/><path class="cls-1" d="M1314.41,225.65v53.11h-27.57V233.59c0-9.5-5.61-15.42-14.33-15.42-9.34.15-15.42,6.54-16.51,16v44.54h-27.72V194.5H1256V208.2c5.92-9.66,15.57-14.8,27.88-14.8C1302.26,193.41,1314.41,205.87,1314.41,225.65Z"/><path class="cls-1" d="M1412,167.69V278.75h-27.72v-10.9c-5.76,7.79-14.33,12-24.92,12-23.67,0-39.25-17.44-39.25-43.61,0-25.7,15.42-42.67,38.62-42.67,10.9,0,19.62,4.36,25.54,12V167.69ZM1384.28,237c0-12.62-7.32-21-18.07-21-10.9,0-18.22,8.57-18.22,21s7.32,21,18.22,21C1377,258,1384.28,249.47,1384.28,237Z"/><path class="cls-1" d="M762.86,195.71h28.8l10.12,38.75,9.52-38.75h26.35l9.67,39.06,10.4-39.06h28.34l-24.89,81.24H835.65l-11.26-43.73-11.57,43.73H787.46Z"/><path class="cls-1" d="M1101.08,341.71h-5.68v19.7H1092v-19.7h-4v-1.53l4-1.22v-1.24q0-8.23,7.19-8.23a14.81,14.81,0,0,1,4.16.71l-.88,2.71a11.2,11.2,0,0,0-3.34-.63,3.25,3.25,0,0,0-2.83,1.27,7.11,7.11,0,0,0-.92,4.09v1.45h5.68Z"/><path class="cls-1" d="M1122.91,350.22q0,5.46-2.75,8.53a9.69,9.69,0,0,1-7.6,3.07,10.06,10.06,0,0,1-5.32-1.41,9.28,9.28,0,0,1-3.59-4,14.06,14.06,0,0,1-1.26-6.15q0-5.46,2.73-8.51a9.66,9.66,0,0,1,7.58-3,9.44,9.44,0,0,1,7.45,3.12Q1122.91,344.91,1122.91,350.22Zm-17,0q0,4.28,1.71,6.52a6.79,6.79,0,0,0,10.08,0q1.72-2.23,1.72-6.53t-1.72-6.47a6.05,6.05,0,0,0-5.08-2.21,6,6,0,0,0-5,2.18Q1105.89,345.9,1105.89,350.22Z"/><path class="cls-1" d="M1137.55,338.67a13.24,13.24,0,0,1,2.67.24l-.47,3.14a11.54,11.54,0,0,0-2.45-.31,6,6,0,0,0-4.64,2.2,8,8,0,0,0-1.93,5.48v12h-3.38V339.08h2.79l.39,4.14h.16a9.82,9.82,0,0,1,3-3.36A6.75,6.75,0,0,1,1137.55,338.67Z"/><path class="cls-1" d="M1171.52,361.41h-16.61V331.62h16.61v3.08h-13.14v9.6h12.35v3.06h-12.35v11h13.14Z"/><path class="cls-1" d="M1191,361.41V347a5.83,5.83,0,0,0-1.24-4.08,5.07,5.07,0,0,0-3.89-1.34q-3.5,0-5.13,1.89t-1.63,6.26v11.72h-3.38V339.08h2.75l.55,3.06h.16a6.91,6.91,0,0,1,2.91-2.56,9.47,9.47,0,0,1,4.18-.91q4,0,6.07,1.95t2,6.23v14.57Z"/><path class="cls-1" d="M1207.11,359a11,11,0,0,0,1.73-.13,11.16,11.16,0,0,0,1.32-.27v2.59a6.15,6.15,0,0,1-1.62.44,12.14,12.14,0,0,1-1.93.17q-6.48,0-6.48-6.83V341.71h-3.2v-1.63l3.2-1.41,1.43-4.77h2v5.18H1210v2.63h-6.48v13.14a4.52,4.52,0,0,0,1,3.1A3.33,3.33,0,0,0,1207.11,359Z"/><path class="cls-1" d="M1223.67,338.67a13.23,13.23,0,0,1,2.67.24l-.47,3.14a11.54,11.54,0,0,0-2.45-.31,6,6,0,0,0-4.64,2.2,8,8,0,0,0-1.93,5.48v12h-3.38V339.08h2.79l.39,4.14h.16a9.81,9.81,0,0,1,3-3.36A6.74,6.74,0,0,1,1223.67,338.67Z"/><path class="cls-1" d="M1238.26,361.82a10.26,10.26,0,0,1-7.81-3q-2.86-3-2.86-8.37t2.66-8.58a8.83,8.83,0,0,1,7.14-3.18,8.42,8.42,0,0,1,6.64,2.76,10.58,10.58,0,0,1,2.45,7.28v2.14h-15.38a8.85,8.85,0,0,0,2,6,6.87,6.87,0,0,0,5.31,2,18,18,0,0,0,7.13-1.51v3a17.91,17.91,0,0,1-3.39,1.11A19.08,19.08,0,0,1,1238.26,361.82Zm-.92-20.31a5.52,5.52,0,0,0-4.29,1.75,8.08,8.08,0,0,0-1.88,4.85h11.68a7.44,7.44,0,0,0-1.43-4.9A5,5,0,0,0,1237.34,341.5Z"/><path class="cls-1" d="M1261.17,361.82a9.66,9.66,0,0,1-4-.8,7.49,7.49,0,0,1-3-2.48h-.24a30,30,0,0,1,.24,3.71v9.19h-3.38V339.08h2.75l.47,3.06h.16a7.86,7.86,0,0,1,3-2.65,9.23,9.23,0,0,1,4-.81,8.25,8.25,0,0,1,6.86,3q2.41,3,2.41,8.52t-2.46,8.55A8.27,8.27,0,0,1,1261.17,361.82Zm-.49-20.27q-3.42,0-5,1.89t-1.57,6v.75q0,4.71,1.57,6.73t5,2a5.23,5.23,0,0,0,4.53-2.34,11.11,11.11,0,0,0,1.64-6.46,10.7,10.7,0,0,0-1.64-6.41A5.4,5.4,0,0,0,1260.68,341.54Z"/><path class="cls-1" d="M1285.1,338.67a13.23,13.23,0,0,1,2.67.24l-.47,3.14a11.54,11.54,0,0,0-2.45-.31,6,6,0,0,0-4.64,2.2,8,8,0,0,0-1.93,5.48v12h-3.38V339.08h2.79l.39,4.14h.16a9.82,9.82,0,0,1,3-3.36A6.75,6.75,0,0,1,1285.1,338.67Z"/><path class="cls-1" d="M1299.68,361.82a10.26,10.26,0,0,1-7.81-3q-2.86-3-2.86-8.37t2.66-8.58a8.83,8.83,0,0,1,7.14-3.18,8.42,8.42,0,0,1,6.64,2.76,10.58,10.58,0,0,1,2.45,7.28v2.14h-15.38a8.85,8.85,0,0,0,2,6,6.87,6.87,0,0,0,5.31,2,18,18,0,0,0,7.13-1.51v3a17.92,17.92,0,0,1-3.39,1.11A19.08,19.08,0,0,1,1299.68,361.82Zm-.92-20.31a5.52,5.52,0,0,0-4.29,1.75,8.08,8.08,0,0,0-1.88,4.85h11.68a7.44,7.44,0,0,0-1.43-4.9A5,5,0,0,0,1298.76,341.5Z"/><path class="cls-1" d="M1327.49,361.41V347a5.83,5.83,0,0,0-1.24-4.08,5.06,5.06,0,0,0-3.89-1.34q-3.5,0-5.13,1.89t-1.63,6.26v11.72h-3.38V339.08H1315l.55,3.06h.16a6.91,6.91,0,0,1,2.91-2.56,9.47,9.47,0,0,1,4.18-.91q4,0,6.07,1.95t2,6.23v14.57Z"/><path class="cls-1" d="M1345.83,361.82a10.26,10.26,0,0,1-7.81-3q-2.86-3-2.86-8.37t2.66-8.58a8.83,8.83,0,0,1,7.14-3.18,8.42,8.42,0,0,1,6.64,2.76,10.58,10.58,0,0,1,2.44,7.28v2.14h-15.38a8.85,8.85,0,0,0,2,6,6.87,6.87,0,0,0,5.31,2,18,18,0,0,0,7.13-1.51v3a17.9,17.9,0,0,1-3.39,1.11A19.08,19.08,0,0,1,1345.83,361.82Zm-.92-20.31a5.52,5.52,0,0,0-4.29,1.75,8.08,8.08,0,0,0-1.88,4.85h11.68a7.44,7.44,0,0,0-1.43-4.9A5,5,0,0,0,1344.91,341.5Z"/><path class="cls-1" d="M1361.49,339.08v14.49a5.83,5.83,0,0,0,1.24,4.08,5.06,5.06,0,0,0,3.89,1.34q3.5,0,5.12-1.92t1.62-6.26V339.08h3.38v22.33H1374l-.49-3h-.18a6.74,6.74,0,0,1-2.88,2.53,9.69,9.69,0,0,1-4.21.88q-4.08,0-6.1-1.94t-2-6.19V339.08Z"/><path class="cls-1" d="M1392.48,338.67a13.24,13.24,0,0,1,2.67.24l-.47,3.14a11.54,11.54,0,0,0-2.44-.31,6,6,0,0,0-4.64,2.2,8,8,0,0,0-1.93,5.48v12h-3.38V339.08h2.79l.39,4.14h.16a9.82,9.82,0,0,1,3-3.36A6.74,6.74,0,0,1,1392.48,338.67Z"/><path class="cls-1" d="M1413.09,355.32a5.59,5.59,0,0,1-2.32,4.81,10.92,10.92,0,0,1-6.52,1.69,14.18,14.18,0,0,1-6.93-1.41v-3.14a16.72,16.72,0,0,0,3.45,1.28,14.41,14.41,0,0,0,3.56.47,8.06,8.06,0,0,0,4.07-.85,2.91,2.91,0,0,0,.3-4.81,17.78,17.78,0,0,0-4.41-2.19,23.92,23.92,0,0,1-4.43-2,6,6,0,0,1-2-2,5.13,5.13,0,0,1-.64-2.63,5,5,0,0,1,2.22-4.31,10.35,10.35,0,0,1,6.09-1.58,17.83,17.83,0,0,1,7.05,1.47l-1.2,2.75a16.19,16.19,0,0,0-6.09-1.39,7,7,0,0,0-3.63.75,2.33,2.33,0,0,0-1.22,2.08,2.53,2.53,0,0,0,.46,1.53,4.52,4.52,0,0,0,1.48,1.2,32.89,32.89,0,0,0,3.91,1.65,14.62,14.62,0,0,1,5.37,2.91A5.14,5.14,0,0,1,1413.09,355.32Z"/><path class="cls-1" d="M736.08,340.3a8.34,8.34,0,0,1-3.09,7q-3.09,2.44-8.83,2.43h-3.5v11.72h-3.46V331.62h7.72Q736.08,331.62,736.08,340.3Zm-15.42,6.42h3.12q4.6,0,6.66-1.49a5.48,5.48,0,0,0,2.06-4.77,5.14,5.14,0,0,0-1.94-4.4q-1.94-1.45-6-1.45h-3.87Z"/><path class="cls-1" d="M759.16,350.22q0,5.46-2.75,8.53a9.69,9.69,0,0,1-7.6,3.07,10.07,10.07,0,0,1-5.32-1.41,9.28,9.28,0,0,1-3.59-4,14.06,14.06,0,0,1-1.26-6.15q0-5.46,2.73-8.51a9.66,9.66,0,0,1,7.58-3,9.45,9.45,0,0,1,7.45,3.12Q759.16,344.91,759.16,350.22Zm-17,0q0,4.28,1.71,6.52a6.79,6.79,0,0,0,10.08,0q1.72-2.23,1.72-6.53t-1.72-6.47a6,6,0,0,0-5.08-2.21,6,6,0,0,0-5,2.18Q742.14,345.9,742.14,350.22Z"/><path class="cls-1" d="M781.88,361.41l-4.1-13.1q-.39-1.2-1.45-5.46h-.16q-.82,3.57-1.43,5.5l-4.22,13.06h-3.91l-6.09-22.33h3.55l3.29,12.82a52,52,0,0,1,1.29,5.93h.16q.22-1.16.72-3t.87-2.92l4.1-12.82h3.67l4,12.82a43.26,43.26,0,0,1,1.55,5.89h.16a21.44,21.44,0,0,1,.44-2.26q.36-1.53,4.25-16.44h3.5l-6.17,22.33Z"/><path class="cls-1" d="M804.08,361.82a10.26,10.26,0,0,1-7.81-3q-2.86-3-2.86-8.37t2.66-8.58a8.83,8.83,0,0,1,7.14-3.18,8.42,8.42,0,0,1,6.64,2.76,10.58,10.58,0,0,1,2.45,7.28v2.14H796.91a8.85,8.85,0,0,0,2,6,6.87,6.87,0,0,0,5.31,2,18,18,0,0,0,7.13-1.51v3a17.9,17.9,0,0,1-3.39,1.11A19.08,19.08,0,0,1,804.08,361.82Zm-.92-20.31a5.52,5.52,0,0,0-4.29,1.75A8.08,8.08,0,0,0,797,348.1h11.68a7.44,7.44,0,0,0-1.43-4.9A5,5,0,0,0,803.17,341.5Z"/><path class="cls-1" d="M826.8,338.67a13.23,13.23,0,0,1,2.67.24l-.47,3.14a11.54,11.54,0,0,0-2.45-.31,6,6,0,0,0-4.64,2.2,8,8,0,0,0-1.93,5.48v12h-3.38V339.08h2.79l.39,4.14h.16a9.81,9.81,0,0,1,3-3.36A6.74,6.74,0,0,1,826.8,338.67Z"/><path class="cls-1" d="M841.38,361.82a10.26,10.26,0,0,1-7.81-3q-2.86-3-2.86-8.37t2.66-8.58a8.83,8.83,0,0,1,7.14-3.18,8.42,8.42,0,0,1,6.64,2.76,10.58,10.58,0,0,1,2.45,7.28v2.14H834.21a8.85,8.85,0,0,0,2,6,6.87,6.87,0,0,0,5.31,2,18,18,0,0,0,7.13-1.51v3a17.91,17.91,0,0,1-3.39,1.11A19.08,19.08,0,0,1,841.38,361.82Zm-.92-20.31a5.52,5.52,0,0,0-4.29,1.75,8.08,8.08,0,0,0-1.88,4.85H846a7.44,7.44,0,0,0-1.43-4.9A5,5,0,0,0,840.46,341.5Z"/><path class="cls-1" d="M869.35,358.42h-.18a8,8,0,0,1-7,3.4,8.29,8.29,0,0,1-6.82-3q-2.43-3-2.44-8.52t2.45-8.58a8.23,8.23,0,0,1,6.81-3.06,8.12,8.12,0,0,1,7,3.3h.27l-.14-1.61-.08-1.57v-9.09h3.38v31.71h-2.75Zm-6.77.57q3.46,0,5-1.88t1.56-6.08v-.71q0-4.75-1.58-6.77t-5-2a5.18,5.18,0,0,0-4.55,2.31,11.5,11.5,0,0,0-1.58,6.53q0,4.28,1.57,6.46A5.31,5.31,0,0,0,862.58,359Z"/><path class="cls-1" d="M900.11,338.71a8.3,8.3,0,0,1,6.84,3q2.43,3,2.43,8.51t-2.46,8.55a8.27,8.27,0,0,1-6.82,3,9.66,9.66,0,0,1-4-.8,7.49,7.49,0,0,1-3-2.48h-.24l-.71,2.87h-2.42V329.71h3.38v7.7q0,2.59-.16,4.65h.16A8,8,0,0,1,900.11,338.71Zm-.49,2.83q-3.46,0-5,2t-1.53,6.69q0,4.71,1.57,6.73t5,2a5.22,5.22,0,0,0,4.65-2.27,11.68,11.68,0,0,0,1.53-6.53q0-4.36-1.53-6.5A5.42,5.42,0,0,0,899.63,341.54Z"/><path class="cls-1" d="M910.25,339.08h3.63l4.89,12.74a48.5,48.5,0,0,1,2,6.3h.16q.26-1,1.11-3.56t5.53-15.48h3.63l-9.6,25.43a12.69,12.69,0,0,1-3.33,5.35,7.09,7.09,0,0,1-4.68,1.58,13.6,13.6,0,0,1-3.06-.35v-2.71a11.79,11.79,0,0,0,2.51.24q3.48,0,5-3.91l1.24-3.18Z"/><path class="cls-1" d="M943.1,345.18a17.06,17.06,0,0,1,17.07-16.82A16,16,0,0,1,971.7,333l-3.24,3.24a11.72,11.72,0,0,0-8.29-3.28,12.23,12.23,0,0,0,0,24.46,11.26,11.26,0,0,0,8.49-3.36,9.59,9.59,0,0,0,2.5-5.79h-11v-4.6h15.47a15,15,0,0,1,.25,2.87c0,3.45-.94,7.71-4,10.75A15.38,15.38,0,0,1,960.17,362,17.06,17.06,0,0,1,943.1,345.18Z"/><path class="cls-1" d="M988.38,340.34a10.83,10.83,0,1,0,10.87,10.83A10.68,10.68,0,0,0,988.38,340.34Zm0,17.4a6.58,6.58,0,1,1,6.11-6.57A6.27,6.27,0,0,1,988.38,357.73Z"/><path class="cls-1" d="M1012.1,340.34A10.83,10.83,0,1,0,1023,351.17,10.68,10.68,0,0,0,1012.1,340.34Zm0,17.4a6.58,6.58,0,1,1,6.11-6.57A6.27,6.27,0,0,1,1012.1,357.73Z"/><path class="cls-1" d="M1041.22,341v1.76h-.16a7.51,7.51,0,0,0-5.7-2.42,10.84,10.84,0,0,0,0,21.66,7.38,7.38,0,0,0,5.7-2.46h.16v1.56c0,4.14-2.22,6.36-5.79,6.36a6,6,0,0,1-5.46-3.86l-4.14,1.72a10.32,10.32,0,0,0,9.6,6.4c5.58,0,10.3-3.28,10.3-11.28V341Zm-5.46,16.74a6.22,6.22,0,0,1-6-6.52c0-3.82,2.75-6.61,6-6.61s5.79,2.79,5.79,6.61S1039,357.73,1035.76,357.73Z"/><rect class="cls-1" x="1049.02" y="329.5" width="4.76" height="31.84"/><path class="cls-1" d="M1066.82,357.73a5.51,5.51,0,0,1-5.25-3.28l14.48-6-.49-1.23c-.9-2.42-3.65-6.89-9.27-6.89s-10.22,4.39-10.22,10.83A10.6,10.6,0,0,0,1066.82,362a10.78,10.78,0,0,0,9-4.8l-3.69-2.46A6.19,6.19,0,0,1,1066.82,357.73Zm-.37-13.21a4.2,4.2,0,0,1,4,2.3l-9.68,4A5.94,5.94,0,0,1,1066.45,344.52Z"/><path class="cls-1" d="M303.94,111.88q0,13.51-11.79,17l14.29,19.83H294.73l-13-18.35h-12.1v18.35h-9.21V94.16h20.3q12.49,0,17.88,4.22T303.94,111.88Zm-12.26,7.73q2.81-2.42,2.81-7.77t-2.89-7.34q-2.89-2-10.3-2H269.59V122h11.48Q288.87,122,291.68,119.61Z"/><path class="cls-1" d="M347.58,143.15a22.74,22.74,0,0,1-31.23,0,21.58,21.58,0,0,1,0-30.37,22.74,22.74,0,0,1,31.23,0,21.58,21.58,0,0,1,0,30.37Zm-25-5.39a13.58,13.58,0,0,0,18.81,0,14.8,14.8,0,0,0,0-19.59,13.58,13.58,0,0,0-18.81,0,14.8,14.8,0,0,0,0,19.59Z"/><path class="cls-1" d="M391.38,136.32a11.68,11.68,0,0,1-4.29,9.48,16.69,16.69,0,0,1-11,3.55,29.5,29.5,0,0,1-9.41-1.64,28.25,28.25,0,0,1-8.63-4.61l4.22-6.79q7.26,5.47,14.05,5.46a7.32,7.32,0,0,0,4.68-1.37,4.25,4.25,0,0,0,1.72-3.47q0-3.12-8.28-5.62a9.77,9.77,0,0,0-.94-.31q-13-3.51-13-11.71A11.11,11.11,0,0,1,365,110q4.49-3.47,11.67-3.47a24.28,24.28,0,0,1,13.58,4.22L387,117.27a19.57,19.57,0,0,0-11-3.36,10,10,0,0,0-5.07,1.13,3.68,3.68,0,0,0-2,3.4,3.1,3.1,0,0,0,2,3,19.66,19.66,0,0,0,3.94,1.33q2.54.62,4.49,1.25t3.79,1.41a24.54,24.54,0,0,1,3.94,2.19Q391.38,130.38,391.38,136.32Z"/><path class="cls-1" d="M433,148.73h-8v-5.54q-5.15,6.17-13.82,6.17a15.85,15.85,0,0,1-10.73-3.67,12.28,12.28,0,0,1-4.26-9.8q0-6.13,4.53-9.17t12.26-3h11.32v-1.56q0-8.27-9.21-8.28-5.78,0-12,4.22l-3.9-5.47a26.89,26.89,0,0,1,17.18-6q7.34,0,12,3.71T433,122Zm-8.74-15.46v-3.51h-9.84q-9.44,0-9.45,5.93a5.28,5.28,0,0,0,2.34,4.64,11.44,11.44,0,0,0,6.52,1.6,11.82,11.82,0,0,0,7.3-2.34A7.49,7.49,0,0,0,424.24,133.27Z"/><path class="cls-1" d="M465,115.4q-6.48,0-9.76,4.22T452,130.93v17.8h-8.74V107.2H452v8.35a18.12,18.12,0,0,1,5.74-6.4,13.82,13.82,0,0,1,7.69-2.58l.08,8.82Z"/><path class="cls-1" d="M472.8,98.92a5.47,5.47,0,1,1,3.9,1.64A5.33,5.33,0,0,1,472.8,98.92Zm8.2,49.81h-8.74V107.2H481Z"/><path class="cls-1" d="M526.43,143.15a22.74,22.74,0,0,1-31.23,0,21.58,21.58,0,0,1,0-30.37,22.74,22.74,0,0,1,31.23,0,21.58,21.58,0,0,1,0,30.37Zm-25-5.39a13.58,13.58,0,0,0,18.81,0,14.79,14.79,0,0,0,0-19.59,13.58,13.58,0,0,0-18.81,0,14.79,14.79,0,0,0,0,19.59Z"/><path class="cls-1" d="M163.63,101.09c0-2.35-18.64-5-41.64-5s-41.64,2.61-41.64,5,18.64,5,41.64,5S163.63,103.45,163.63,101.09Z"/><circle class="cls-1" cx="103.88" cy="23.82" r="23.82"/><circle class="cls-1" cx="141.01" cy="56.94" r="17.02"/><path class="cls-1" d="M243.8,331.2,169.67,149.07,190.88,93a5.44,5.44,0,0,0-3.45-7.11c-1.13-.35-28.05-8.7-65.4-8.7-1.83,0-3.63,0-5.41.06a13.48,13.48,0,1,0-24.14,1.65c-21.26,2.46-35,6.73-35.83,7a5.44,5.44,0,0,0-3.44,7.14l21.69,56.32L.42,331.19A6.86,6.86,0,0,0,0,333.82c0,6.19,7.65,7.34,13.79,8.26s14.59,1.72,25.46,2.41c22.14,1.41,51.56,2.18,82.85,2.18s60.71-.78,82.85-2.18c10.86-.69,19.43-1.5,25.45-2.41s13.79-2.07,13.79-8.26A9.66,9.66,0,0,0,243.8,331.2ZM122.1,335.8c-60.32,0-98-2.69-109.8-4.95L85.78,151.5a5.44,5.44,0,0,0,0-4L65.52,94.77a242.31,242.31,0,0,1,113.07,0l-19.85,52.44a5.43,5.43,0,0,0,0,4l73.12,179.65C220.12,333.11,182.44,335.8,122.1,335.8Z"/><path class="cls-1" d="M215.68,321.64l-20.11-49.35v-9.85a30.38,30.38,0,0,0-8.67-21.66A29.91,29.91,0,0,0,182,236.7s-34.5-86.53-34.5-86.53c-.09-.23-.24-.64-.56-.64-6.94.67-15.55,1.09-24.88,1.09s-18-.43-24.92-1.1c-.32,0-.51.39-.61.61,0,0-25.76,64.28-25.79,64.3a30.34,30.34,0,0,0-12.57,25v8.21l-29.74,74c5,1.86,35.27,3.23,39.88,2.8v-85a19.83,19.83,0,1,1,39.65,0v31.41c-10.14,4.47-17.52,15.23-17.52,27.77v27H100.6v-27a19.36,19.36,0,0,1,38.72,0v27h11.06v-27a29.82,29.82,0,0,0-4.93-16.37c0-6.61,0-20.59,0-20.48a20.2,20.2,0,0,1,40.29-.18c0-.17,0,61.43,0,62.8C188.09,324.25,211.32,323.34,215.68,321.64Zm-68-84a27.9,27.9,0,0,0-8,8.22,30.63,30.63,0,0,0-4.26,10.22,30.17,30.17,0,0,0-.67,6.34v9.81a32.74,32.74,0,0,0-14.62-3.57c-.53,0-2,0-2,0V239.45c0-8-2.77-16.32-9.22-21.77v-15c0-11.16,10.5-20.94,21.67-20.94s21.67,9.75,21.67,20.9v32.52A23.75,23.75,0,0,0,147.63,237.63Z"/><circle class="cls-1" cx="79.49" cy="244.66" r="5.33" transform="translate(-0.91 0.3) rotate(-0.21)"/><circle class="cls-1" cx="96.65" cy="244.65" r="5.33" transform="translate(-0.99 0.39) rotate(-0.23)"/><circle class="cls-1" cx="122.41" cy="204.42" r="5.33" transform="translate(-0.78 0.47) rotate(-0.22)"/><circle class="cls-1" cx="139.57" cy="204.41" r="5.33" transform="translate(-0.78 0.53) rotate(-0.22)"/><circle class="cls-1" cx="157.21" cy="267.7" r="5.33" transform="translate(-1.04 0.61) rotate(-0.22)"/><circle class="cls-1" cx="174.37" cy="267.69" r="5.33" transform="translate(-1.08 0.71) rotate(-0.23)"/><circle class="cls-1" cx="112.2" cy="297.67" r="5.02" transform="matrix(1, 0, 0, 1, -1.17, 0.44)"/><circle class="cls-1" cx="128.38" cy="297.67" r="5.02" transform="translate(-1.25 0.54) rotate(-0.24)"/><path class="cls-1" d="M131.11,225.18a18.09,18.09,0,0,1-9.56-2.71,3,3,0,0,1,3.17-5.09,12.17,12.17,0,0,0,12.78,0,3,3,0,0,1,3.17,5.09A18.08,18.08,0,0,1,131.11,225.18Z"/><path class="cls-1" d="M88.25,265.92a18.08,18.08,0,0,1-9.56-2.71,3,3,0,1,1,3.17-5.09,12.17,12.17,0,0,0,12.78,0,3,3,0,0,1,3.17,5.09A18.08,18.08,0,0,1,88.25,265.92Z"/><path class="cls-1" d="M120.32,317.84a18.07,18.07,0,0,1-9.56-2.71,3,3,0,1,1,3.17-5.09,12.16,12.16,0,0,0,12.78,0,3,3,0,1,1,3.17,5.09A18.09,18.09,0,0,1,120.32,317.84Z"/><path class="cls-1" d="M165.86,289.08a18.08,18.08,0,0,1-9.56-2.71,3,3,0,1,1,3.17-5.09,12.17,12.17,0,0,0,12.78,0,3,3,0,1,1,3.17,5.09A18.09,18.09,0,0,1,165.86,289.08Z"/></svg>