<?xml version="1.0" encoding="UTF-8" standalone="no"?>
<svg width="290px" height="49px" viewBox="0 0 290 49" version="1.1" xmlns="http://www.w3.org/2000/svg" xmlns:xlink="http://www.w3.org/1999/xlink">
    <!-- Generator: Sketch 44.1 (41455) - http://www.bohemiancoding.com/sketch -->
    <title>sw-logo-white</title>
    <desc>Created with Sketch.</desc>
    <defs></defs>
    <g id="Page-1" stroke="none" stroke-width="1" fill="none" fill-rule="evenodd">
        <g id="sw-logo-white" fill-rule="nonzero" fill="#FFFFFF">
            <g id="Group" transform="translate(33.373016, 17.722222)">
                <g id="Shape">
                    <g transform="translate(156.968254, 0.000000)">
                        <polygon points="1.97936508 0 1.97936508 0.46031746 1.35793651 0.46031746 1.35793651 2.09444444 0.805555556 2.09444444 0.805555556 0.46031746 0.184126984 0.46031746 0.184126984 0"></polygon>
                        <polygon points="2.73888889 0 3.29126984 1.21984127 3.84365079 0 4.44206349 0 4.44206349 2.09444444 3.95873016 2.09444444 3.95873016 0.782539683 3.47539683 1.88730159 3.10714286 1.88730159 2.62380952 0.782539683 2.62380952 2.09444444 2.14047619 2.09444444 2.14047619 0"></polygon>
                    </g>
                    <path d="M28.5626984,7.27301587 L28.5626984,14.5460317 L24.9492063,14.5460317 L24.9492063,13.2801587 C24.2357143,14.2007937 23.0849206,14.7071429 21.5888889,14.7071429 C19.1952381,14.7071429 17.768254,13.2571429 17.768254,11.231746 C17.768254,9.11428571 19.2642857,7.89444444 22.0492063,7.8484127 L24.9492063,7.8484127 L24.9492063,7.73333333 C24.9492063,6.67460317 24.2357143,6.0531746 22.831746,6.0531746 C21.9111111,6.0531746 20.6912698,6.35238095 19.4944444,6.95079365 L18.481746,4.46507937 C20.2309524,3.68253968 21.8420635,3.2452381 23.6833333,3.2452381 C26.7444444,3.22222222 28.5396825,4.71825397 28.5626984,7.27301587 Z M24.9492063,10.7714286 L24.9492063,9.8047619 L22.7626984,9.8047619 C21.7269841,9.8047619 21.2206349,10.1730159 21.2206349,10.9555556 C21.2206349,11.7150794 21.7730159,12.2214286 22.7166667,12.2214286 C23.8214286,12.1984127 24.7190476,11.6 24.9492063,10.7714286 Z"></path>
                    <path d="M44.4206349,14.0626984 C43.6150794,14.5460317 42.5103175,14.7992063 41.4055556,14.7992063 C39.2420635,14.8222222 37.6769841,13.5333333 37.6769841,11.231746 L37.6769841,6.44444444 L37.6769841,4.0047619 L37.6769841,0.943650794 L41.3365079,0.943650794 L41.3365079,4.0047619 L44.2134921,4.0047619 L44.2134921,6.6515873 L41.3365079,6.6515873 L41.3365079,10.6563492 C41.3365079,11.4849206 41.7047619,11.8531746 42.3492063,11.8301587 C42.7174603,11.8301587 43.2007937,11.6920635 43.7301587,11.4619048 L44.4206349,14.0626984 Z"></path>
                    <path d="M36.802381,3.36031746 L36.802381,6.72063492 C34.7539683,6.51349206 33.3960317,7.41111111 33.2119048,8.97619048 L33.2119048,14.6611111 L29.5293651,14.6611111 L29.5293651,3.4984127 L33.2119048,3.4984127 L33.2119048,5.36269841 C33.9714286,4.07380952 35.2373016,3.36031746 36.802381,3.36031746 Z"></path>
                    <path d="M56.2968254,3.72857143 L56.2968254,14.8912698 L52.6142857,14.8912698 L52.6142857,13.0730159 C51.8547619,14.3619048 50.6349206,15.0293651 49.0468254,15.052381 C46.6301587,15.052381 45.0650794,13.3722222 45.0650794,10.7714286 L45.0650794,3.70555556 L48.747619,3.70555556 L48.747619,9.71269841 C48.747619,10.9785714 49.4380952,11.7380952 50.5428571,11.7380952 C51.831746,11.7150794 52.6373016,10.6793651 52.6373016,9.22936508 L52.6373016,3.72857143 L56.2968254,3.72857143 L56.2968254,3.72857143 Z"></path>
                    <path d="M10.7484127,0.966666667 L14.4079365,0.966666667 L14.4079365,4.02777778 L17.2849206,4.02777778 L17.2849206,6.67460317 L14.4079365,6.67460317 L14.4079365,10.6563492 C14.4079365,11.4849206 14.7761905,11.8531746 15.4206349,11.8301587 C15.7888889,11.8301587 16.2722222,11.6920635 16.8015873,11.4619048 L17.4920635,14.0626984 C16.6865079,14.5460317 15.581746,14.7992063 14.4769841,14.7992063 C12.3134921,14.8222222 10.7484127,13.5333333 10.7484127,11.231746 L10.7484127,0.966666667 L10.7484127,0.966666667 Z"></path>
                    <path d="M69.4619048,9.41349206 C69.4619048,12.8198413 67.4365079,15.0753968 64.352381,15.0753968 C62.9253968,15.0753968 61.7746032,14.5230159 60.9920635,13.5103175 L60.9920635,18.9650794 L57.3095238,18.9650794 L57.3095238,3.79761905 L60.9920635,3.79761905 L60.9920635,5.24761905 C61.7746032,4.23492063 62.8793651,3.68253968 64.2833333,3.68253968 C67.3904762,3.65952381 69.4619048,5.93809524 69.4619048,9.41349206 Z M65.7793651,9.32142857 C65.7793651,7.66428571 64.8126984,6.53650794 63.3626984,6.53650794 C61.9587302,6.53650794 60.9920635,7.66428571 60.9920635,9.32142857 C60.9920635,10.9785714 61.9587302,12.0833333 63.3626984,12.0833333 C64.8126984,12.1063492 65.7793651,10.9785714 65.7793651,9.32142857 Z"></path>
                    <path d="M0.069047619,13.0039683 L1.54206349,10.6103175 C2.83095238,11.4619048 4.25793651,11.8992063 5.43174603,11.8992063 C6.12222222,11.8992063 6.44444444,11.6920635 6.44444444,11.3007937 L6.44444444,11.2547619 C6.44444444,10.8174603 5.82301587,10.6333333 4.62619048,10.2880952 C2.39365079,9.71269841 0.621428571,8.9531746 0.621428571,6.67460317 L0.621428571,6.62857143 C0.621428571,4.23492063 2.53174603,2.9 5.15555556,2.9 C6.81269841,2.9 8.51587302,3.38333333 9.8047619,4.21190476 L8.4468254,6.72063492 C7.27301587,6.07619048 6.00714286,5.68492063 5.10952381,5.68492063 C4.51111111,5.68492063 4.18888889,5.91507937 4.18888889,6.23730159 L4.18888889,6.28333333 C4.18888889,6.72063492 4.83333333,6.92777778 6.03015873,7.29603175 C8.26269841,7.91746032 10.0349206,8.7 10.0349206,10.8865079 L10.0349206,10.9325397 C10.0349206,13.418254 8.17063492,14.7071429 5.43174603,14.7071429 C3.52142857,14.6611111 1.63412698,14.131746 0.069047619,13.0039683 Z"></path>
                    <path d="M96.5055556,10.0119048 L88.6571429,10.0119048 C89.002381,11.2777778 89.9460317,11.9912698 91.2349206,11.9912698 C92.2015873,11.9912698 93.1452381,11.6 93.881746,10.8404762 L95.8150794,12.7738095 C94.6642857,14.0626984 92.984127,14.7761905 90.8896825,14.7761905 C87.184127,14.7761905 84.9055556,12.497619 84.9055556,9.0452381 C84.9055556,5.5468254 87.2761905,3.22222222 90.797619,3.22222222 C94.7563492,3.2452381 96.7587302,5.89206349 96.5055556,10.0119048 Z M92.9150794,8.00952381 C92.9150794,6.72063492 92.0865079,5.84603175 90.8206349,5.84603175 C89.6007937,5.84603175 88.818254,6.72063492 88.5650794,8.00952381 L92.9150794,8.00952381 Z"></path>
                    <path d="M108.657937,10.0119048 L100.809524,10.0119048 C101.154762,11.2777778 102.098413,11.9912698 103.387302,11.9912698 C104.353968,11.9912698 105.297619,11.6 106.034127,10.8404762 L107.96746,12.7738095 C106.816667,14.0626984 105.136508,14.7761905 103.042063,14.7761905 C99.3365079,14.7761905 97.0579365,12.497619 97.0579365,9.0452381 C97.0579365,5.5468254 99.4285714,3.22222222 102.95,3.22222222 C106.90873,3.2452381 108.911111,5.89206349 108.657937,10.0119048 Z M105.06746,8.00952381 C105.06746,6.72063492 104.238889,5.84603175 102.973016,5.84603175 C101.753175,5.84603175 100.970635,6.72063492 100.71746,8.00952381 L105.06746,8.00952381 Z"></path>
                    <polygon points="120.303968 3.84365079 115.815873 3.84365079 113.053968 6.97380952 113.053968 0.023015873 109.348413 0.023015873 109.348413 14.7992063 113.053968 14.7992063 113.053968 11.7150794 113.053968 10.7484127 115.953968 14.6380952 120.096825 14.6380952 115.953968 8.90714286"></polygon>
                    <path d="M130.615079,10.1269841 L122.766667,10.1269841 C123.111905,11.3928571 124.055556,12.1063492 125.344444,12.1063492 C126.311111,12.1063492 127.254762,11.7150794 127.99127,10.9555556 L129.924603,12.8888889 C128.77381,14.1777778 127.093651,14.8912698 124.999206,14.8912698 C121.293651,14.8912698 119.015079,12.6126984 119.015079,9.16031746 C119.015079,5.66190476 121.385714,3.33730159 124.907143,3.33730159 C128.865873,3.36031746 130.868254,6.00714286 130.615079,10.1269841 Z M127.024603,8.14761905 C127.024603,6.85873016 126.196032,5.98412698 124.930159,5.98412698 C123.710317,5.98412698 122.927778,6.85873016 122.674603,8.14761905 L127.024603,8.14761905 Z"></path>
                    <path d="M142.905556,7.80238095 L142.905556,14.9142857 L139.2,14.9142857 L139.2,8.86111111 C139.2,7.5952381 138.440476,6.78968254 137.289683,6.78968254 C136.046825,6.81269841 135.218254,7.66428571 135.080159,8.93015873 L135.080159,14.9142857 L131.351587,14.9142857 L131.351587,3.61349206 L135.080159,3.61349206 L135.080159,5.4547619 C135.862698,4.16587302 137.174603,3.47539683 138.80873,3.47539683 C141.271429,3.47539683 142.905556,5.13253968 142.905556,7.80238095 Z"></path>
                    <path d="M156.001587,0.023015873 L156.001587,14.9142857 L152.273016,14.9142857 L152.273016,13.4412698 C151.490476,14.4769841 150.362698,15.052381 148.935714,15.052381 C145.759524,15.052381 143.665079,12.7047619 143.665079,9.20634921 C143.665079,5.75396825 145.736508,3.47539683 148.843651,3.47539683 C150.316667,3.47539683 151.46746,4.05079365 152.273016,5.08650794 L152.273016,5.68434189e-14 L156.001587,5.68434189e-14 L156.001587,0.023015873 Z M152.273016,9.32142857 C152.273016,7.61825397 151.283333,6.49047619 149.856349,6.49047619 C148.383333,6.49047619 147.416667,7.64126984 147.416667,9.32142857 C147.416667,11.0015873 148.406349,12.152381 149.856349,12.152381 C151.306349,12.152381 152.273016,11.0015873 152.273016,9.32142857 Z"></path>
                    <polygon points="68.9325397 3.77460317 72.7992063 3.77460317 74.1571429 8.97619048 75.4230159 3.77460317 78.9674603 3.77460317 80.2563492 9.02222222 81.6603175 3.77460317 85.4579365 3.77460317 82.1206349 14.6611111 78.6912698 14.6611111 77.1722222 8.79206349 75.6301587 14.6611111 72.2238095 14.6611111"></polygon>
                </g>
                <g transform="translate(62.833333, 21.404762)">
                    <g transform="translate(49.714286, 0.230159)" id="Shape">
                        <path d="M1.74920635,1.72619048 L0.98968254,1.72619048 L0.98968254,4.37301587 L0.529365079,4.37301587 L0.529365079,1.72619048 L0,1.72619048 L0,1.51904762 L0.529365079,1.35793651 L0.529365079,1.1968254 C0.529365079,0.46031746 0.851587302,0.0920634921 1.49603175,0.0920634921 C1.65714286,0.0920634921 1.84126984,0.115079365 2.0484127,0.184126984 L1.93333333,0.552380952 C1.74920635,0.506349206 1.61111111,0.46031746 1.49603175,0.46031746 C1.33492063,0.46031746 1.1968254,0.506349206 1.1047619,0.621428571 C1.01269841,0.736507937 0.98968254,0.920634921 0.98968254,1.17380952 L0.98968254,1.35793651 L1.74920635,1.35793651 L1.74920635,1.72619048 L1.74920635,1.72619048 Z"></path>
                        <path d="M4.67222222,2.87698413 C4.67222222,3.36031746 4.55714286,3.7515873 4.30396825,4.02777778 C4.05079365,4.30396825 3.72857143,4.44206349 3.29126984,4.44206349 C3.01507937,4.44206349 2.78492063,4.37301587 2.57777778,4.25793651 C2.37063492,4.14285714 2.20952381,3.95873016 2.09444444,3.70555556 C1.97936508,3.47539683 1.93333333,3.19920635 1.93333333,2.87698413 C1.93333333,2.39365079 2.0484127,2.00238095 2.3015873,1.72619048 C2.5547619,1.45 2.87698413,1.31190476 3.31428571,1.31190476 C3.72857143,1.31190476 4.07380952,1.45 4.30396825,1.72619048 C4.55714286,2.02539683 4.67222222,2.39365079 4.67222222,2.87698413 Z M2.39365079,2.87698413 C2.39365079,3.26825397 2.46269841,3.54444444 2.62380952,3.7515873 C2.78492063,3.95873016 2.99206349,4.05079365 3.29126984,4.05079365 C3.59047619,4.05079365 3.82063492,3.95873016 3.95873016,3.7515873 C4.11984127,3.54444444 4.18888889,3.26825397 4.18888889,2.87698413 C4.18888889,2.48571429 4.11984127,2.20952381 3.95873016,2.00238095 C3.79761905,1.7952381 3.56746032,1.7031746 3.26825397,1.7031746 C2.96904762,1.7031746 2.73888889,1.7952381 2.60079365,2.00238095 C2.46269841,2.18650794 2.39365079,2.48571429 2.39365079,2.87698413 Z"></path>
                        <path d="M6.62857143,1.31190476 C6.76666667,1.31190476 6.88174603,1.31190476 6.9968254,1.33492063 L6.92777778,1.74920635 C6.81269841,1.72619048 6.69761905,1.7031746 6.60555556,1.7031746 C6.35238095,1.7031746 6.1452381,1.7952381 5.98412698,2.00238095 C5.82301587,2.20952381 5.73095238,2.43968254 5.73095238,2.73888889 L5.73095238,4.35 L5.27063492,4.35 L5.27063492,1.35793651 L5.63888889,1.35793651 L5.68492063,1.91031746 L5.70793651,1.91031746 C5.82301587,1.72619048 5.96111111,1.56507937 6.09920635,1.45 C6.28333333,1.38095238 6.44444444,1.31190476 6.62857143,1.31190476 Z"></path>
                        <polygon points="11.1857143 4.37301587 8.97619048 4.37301587 8.97619048 0.368253968 11.2087302 0.368253968 11.2087302 0.782539683 9.43650794 0.782539683 9.43650794 2.07142857 11.0936508 2.07142857 11.0936508 2.48571429 9.43650794 2.48571429 9.43650794 3.95873016 11.2087302 3.95873016 11.2087302 4.37301587"></polygon>
                        <path d="M13.8095238,4.37301587 L13.8095238,2.43968254 C13.8095238,2.18650794 13.7634921,2.00238095 13.6484127,1.88730159 C13.5333333,1.77222222 13.3722222,1.7031746 13.1190476,1.7031746 C12.7968254,1.7031746 12.5666667,1.7952381 12.4285714,1.95634921 C12.2904762,2.11746032 12.2214286,2.41666667 12.2214286,2.78492063 L12.2214286,4.35 L11.7611111,4.35 L11.7611111,1.35793651 L12.1293651,1.35793651 L12.1984127,1.77222222 L12.2214286,1.77222222 C12.3134921,1.63412698 12.4515873,1.51904762 12.6126984,1.42698413 C12.7738095,1.33492063 12.9579365,1.31190476 13.1650794,1.31190476 C13.5333333,1.31190476 13.7865079,1.40396825 13.9706349,1.56507937 C14.1547619,1.74920635 14.2468254,2.02539683 14.2468254,2.39365079 L14.2468254,4.35 L13.8095238,4.35 L13.8095238,4.37301587 Z"></path>
                        <path d="M15.9730159,4.05079365 C16.0420635,4.05079365 16.134127,4.05079365 16.2031746,4.02777778 C16.2722222,4.0047619 16.3412698,4.0047619 16.3873016,3.98174603 L16.3873016,4.32698413 C16.3412698,4.35 16.2722222,4.37301587 16.1801587,4.39603175 C16.0880952,4.41904762 15.9960317,4.41904762 15.9269841,4.41904762 C15.3515873,4.41904762 15.052381,4.11984127 15.052381,3.4984127 L15.052381,1.72619048 L14.6150794,1.72619048 L14.6150794,1.51904762 L15.052381,1.33492063 L15.2365079,0.69047619 L15.4896825,0.69047619 L15.4896825,1.38095238 L16.3642857,1.38095238 L16.3642857,1.72619048 L15.4896825,1.72619048 L15.4896825,3.4984127 C15.4896825,3.68253968 15.5357143,3.82063492 15.6277778,3.91269841 C15.6968254,4.0047619 15.8119048,4.05079365 15.9730159,4.05079365 Z"></path>
                        <path d="M18.1825397,1.31190476 C18.3206349,1.31190476 18.4357143,1.31190476 18.5507937,1.33492063 L18.481746,1.74920635 C18.3666667,1.72619048 18.2515873,1.7031746 18.1595238,1.7031746 C17.9063492,1.7031746 17.6992063,1.7952381 17.5380952,2.00238095 C17.3769841,2.20952381 17.2849206,2.43968254 17.2849206,2.73888889 L17.2849206,4.35 L16.8246032,4.35 L16.8246032,1.35793651 L17.1928571,1.35793651 L17.2388889,1.91031746 L17.2619048,1.91031746 C17.3769841,1.72619048 17.5150794,1.56507937 17.6531746,1.45 C17.8373016,1.38095238 17.9984127,1.31190476 18.1825397,1.31190476 Z"></path>
                        <path d="M20.1388889,4.41904762 C19.7015873,4.41904762 19.3563492,4.28095238 19.0801587,4.0047619 C18.8269841,3.72857143 18.6888889,3.36031746 18.6888889,2.87698413 C18.6888889,2.39365079 18.8039683,2.00238095 19.034127,1.72619048 C19.2642857,1.45 19.5865079,1.28888889 20.0007937,1.28888889 C20.3690476,1.28888889 20.668254,1.40396825 20.8984127,1.65714286 C21.1055556,1.91031746 21.2206349,2.23253968 21.2206349,2.62380952 L21.2206349,2.9 L19.1492063,2.9 C19.1492063,3.2452381 19.2412698,3.52142857 19.4253968,3.70555556 C19.5865079,3.88968254 19.8396825,3.98174603 20.1388889,3.98174603 C20.4611111,3.98174603 20.7833333,3.91269841 21.1055556,3.77460317 L21.1055556,4.18888889 C20.9444444,4.25793651 20.7833333,4.30396825 20.6452381,4.32698413 C20.5301587,4.41904762 20.3460317,4.41904762 20.1388889,4.41904762 Z M20.0238095,1.7031746 C19.7936508,1.7031746 19.5865079,1.77222222 19.4484127,1.93333333 C19.3103175,2.09444444 19.218254,2.3015873 19.1952381,2.57777778 L20.7603175,2.57777778 C20.7603175,2.3015873 20.6912698,2.07142857 20.5761905,1.91031746 C20.4380952,1.77222222 20.2539683,1.7031746 20.0238095,1.7031746 Z"></path>
                        <path d="M23.2230159,4.41904762 C23.0388889,4.41904762 22.8547619,4.37301587 22.6936508,4.30396825 C22.5325397,4.23492063 22.3944444,4.11984127 22.2793651,3.98174603 L22.2563492,3.98174603 C22.2793651,4.16587302 22.2793651,4.32698413 22.2793651,4.48809524 L22.2793651,5.73095238 L21.8190476,5.73095238 L21.8190476,1.38095238 L22.1873016,1.38095238 L22.2563492,1.7952381 L22.2793651,1.7952381 C22.3944444,1.63412698 22.5325397,1.51904762 22.6936508,1.45 C22.8547619,1.38095238 23.015873,1.33492063 23.2230159,1.33492063 C23.6142857,1.33492063 23.9365079,1.47301587 24.1436508,1.74920635 C24.3507937,2.02539683 24.465873,2.39365079 24.465873,2.9 C24.465873,3.38333333 24.3507937,3.77460317 24.1436508,4.05079365 C23.9134921,4.28095238 23.6142857,4.41904762 23.2230159,4.41904762 Z M23.1539683,1.7031746 C22.8547619,1.7031746 22.6246032,1.7952381 22.4865079,1.95634921 C22.3484127,2.11746032 22.2793651,2.39365079 22.2793651,2.76190476 L22.2793651,2.85396825 C22.2793651,3.26825397 22.3484127,3.56746032 22.4865079,3.7515873 C22.6246032,3.93571429 22.8547619,4.02777778 23.1539683,4.02777778 C23.4071429,4.02777778 23.6142857,3.91269841 23.752381,3.70555556 C23.8904762,3.4984127 23.9825397,3.19920635 23.9825397,2.83095238 C23.9825397,2.46269841 23.9134921,2.16349206 23.752381,1.97936508 C23.6142857,1.7952381 23.4071429,1.7031746 23.1539683,1.7031746 Z"></path>
                        <path d="M26.4222222,1.31190476 C26.5603175,1.31190476 26.6753968,1.31190476 26.7904762,1.33492063 L26.7214286,1.74920635 C26.6063492,1.72619048 26.4912698,1.7031746 26.3992063,1.7031746 C26.1460317,1.7031746 25.9388889,1.7952381 25.7777778,2.00238095 C25.6166667,2.20952381 25.5246032,2.43968254 25.5246032,2.73888889 L25.5246032,4.35 L25.0642857,4.35 L25.0642857,1.35793651 L25.4325397,1.35793651 L25.4785714,1.91031746 L25.5015873,1.91031746 C25.6166667,1.72619048 25.7547619,1.56507937 25.8928571,1.45 C26.0769841,1.38095238 26.2380952,1.31190476 26.4222222,1.31190476 Z"></path>
                        <path d="M28.3785714,4.41904762 C27.9412698,4.41904762 27.5960317,4.28095238 27.3198413,4.0047619 C27.0666667,3.72857143 26.9285714,3.36031746 26.9285714,2.87698413 C26.9285714,2.39365079 27.0436508,2.00238095 27.2738095,1.72619048 C27.5039683,1.45 27.8261905,1.28888889 28.2404762,1.28888889 C28.6087302,1.28888889 28.9079365,1.40396825 29.1380952,1.65714286 C29.368254,1.91031746 29.4603175,2.23253968 29.4603175,2.62380952 L29.4603175,2.9 L27.3888889,2.9 C27.3888889,3.2452381 27.4809524,3.52142857 27.6650794,3.70555556 C27.8261905,3.88968254 28.0793651,3.98174603 28.3785714,3.98174603 C28.7007937,3.98174603 29.0230159,3.91269841 29.3452381,3.77460317 L29.3452381,4.18888889 C29.184127,4.25793651 29.0230159,4.30396825 28.8849206,4.32698413 C28.7468254,4.41904762 28.5857143,4.41904762 28.3785714,4.41904762 Z M28.2634921,1.7031746 C28.0333333,1.7031746 27.8261905,1.77222222 27.6880952,1.93333333 C27.55,2.09444444 27.4579365,2.3015873 27.4349206,2.57777778 L29,2.57777778 C29,2.3015873 28.9309524,2.07142857 28.815873,1.91031746 C28.6777778,1.77222222 28.4936508,1.7031746 28.2634921,1.7031746 Z"></path>
                        <path d="M32.1071429,4.37301587 L32.1071429,2.43968254 C32.1071429,2.18650794 32.0611111,2.00238095 31.9460317,1.88730159 C31.8309524,1.77222222 31.6698413,1.7031746 31.4166667,1.7031746 C31.0944444,1.7031746 30.8642857,1.7952381 30.7261905,1.95634921 C30.5880952,2.11746032 30.5190476,2.41666667 30.5190476,2.78492063 L30.5190476,4.35 L30.0587302,4.35 L30.0587302,1.35793651 L30.4269841,1.35793651 L30.4960317,1.77222222 L30.5190476,1.77222222 C30.6111111,1.63412698 30.7492063,1.51904762 30.9103175,1.42698413 C31.0714286,1.33492063 31.2555556,1.31190476 31.4626984,1.31190476 C31.8309524,1.31190476 32.084127,1.40396825 32.268254,1.56507937 C32.452381,1.74920635 32.5444444,2.02539683 32.5444444,2.39365079 L32.5444444,4.35 L32.1071429,4.35 L32.1071429,4.37301587 Z"></path>
                        <path d="M34.5698413,4.41904762 C34.1325397,4.41904762 33.7873016,4.28095238 33.5111111,4.0047619 C33.2579365,3.72857143 33.1198413,3.36031746 33.1198413,2.87698413 C33.1198413,2.39365079 33.2349206,2.00238095 33.4650794,1.72619048 C33.6952381,1.45 34.0174603,1.28888889 34.431746,1.28888889 C34.8,1.28888889 35.0992063,1.40396825 35.3293651,1.65714286 C35.5365079,1.91031746 35.6515873,2.23253968 35.6515873,2.62380952 L35.6515873,2.9 L33.5801587,2.9 C33.5801587,3.2452381 33.6722222,3.52142857 33.8563492,3.70555556 C34.0174603,3.88968254 34.2706349,3.98174603 34.5698413,3.98174603 C34.8920635,3.98174603 35.2142857,3.91269841 35.5365079,3.77460317 L35.5365079,4.18888889 C35.3753968,4.25793651 35.2142857,4.30396825 35.0761905,4.32698413 C34.9380952,4.41904762 34.7769841,4.41904762 34.5698413,4.41904762 Z M34.4547619,1.7031746 C34.2246032,1.7031746 34.0174603,1.77222222 33.8793651,1.93333333 C33.7412698,2.09444444 33.6492063,2.3015873 33.6261905,2.57777778 L35.1912698,2.57777778 C35.1912698,2.3015873 35.1222222,2.07142857 35.0071429,1.91031746 C34.8690476,1.77222222 34.6849206,1.7031746 34.4547619,1.7031746 Z"></path>
                        <path d="M36.6642857,1.38095238 L36.6642857,3.31428571 C36.6642857,3.56746032 36.7103175,3.7515873 36.8253968,3.86666667 C36.9404762,3.98174603 37.1015873,4.05079365 37.3547619,4.05079365 C37.6769841,4.05079365 37.9071429,3.95873016 38.0452381,3.79761905 C38.1833333,3.63650794 38.252381,3.33730159 38.252381,2.96904762 L38.252381,1.38095238 L38.7126984,1.38095238 L38.7126984,4.37301587 L38.3444444,4.37301587 L38.2753968,3.98174603 L38.252381,3.98174603 C38.1603175,4.11984127 38.0222222,4.23492063 37.8611111,4.32698413 C37.7,4.39603175 37.515873,4.44206349 37.2857143,4.44206349 C36.9174603,4.44206349 36.6412698,4.35 36.4571429,4.18888889 C36.2730159,4.0047619 36.1809524,3.72857143 36.1809524,3.36031746 L36.1809524,1.38095238 L36.6642857,1.38095238 Z"></path>
                        <path d="M40.8301587,1.31190476 C40.968254,1.31190476 41.0833333,1.31190476 41.1984127,1.33492063 L41.1293651,1.74920635 C41.0142857,1.72619048 40.8992063,1.7031746 40.8071429,1.7031746 C40.5539683,1.7031746 40.3468254,1.7952381 40.1857143,2.00238095 C40.0246032,2.20952381 39.9325397,2.43968254 39.9325397,2.73888889 L39.9325397,4.35 L39.4722222,4.35 L39.4722222,1.35793651 L39.8404762,1.35793651 L39.8865079,1.91031746 L39.9095238,1.91031746 C40.0246032,1.72619048 40.1626984,1.56507937 40.3007937,1.45 C40.4619048,1.38095238 40.6460317,1.31190476 40.8301587,1.31190476 Z"></path>
                        <path d="M43.5920635,3.54444444 C43.5920635,3.82063492 43.4769841,4.02777778 43.2698413,4.18888889 C43.0626984,4.35 42.7634921,4.41904762 42.3952381,4.41904762 C42.0039683,4.41904762 41.681746,4.35 41.4746032,4.23492063 L41.4746032,3.82063492 C41.6126984,3.88968254 41.7738095,3.95873016 41.9349206,3.98174603 C42.0960317,4.02777778 42.2571429,4.05079365 42.418254,4.05079365 C42.6484127,4.05079365 42.8325397,4.0047619 42.9706349,3.93571429 C43.1087302,3.86666667 43.1547619,3.7515873 43.1547619,3.59047619 C43.1547619,3.47539683 43.1087302,3.38333333 42.9936508,3.29126984 C42.9015873,3.19920635 42.6944444,3.10714286 42.3952381,2.99206349 C42.1190476,2.87698413 41.9119048,2.80793651 41.7968254,2.71587302 C41.681746,2.6468254 41.5896825,2.5547619 41.5436508,2.46269841 C41.497619,2.37063492 41.4515873,2.25555556 41.4515873,2.11746032 C41.4515873,1.86428571 41.5436508,1.68015873 41.7507937,1.54206349 C41.9579365,1.40396825 42.2111111,1.33492063 42.5563492,1.33492063 C42.8785714,1.33492063 43.2007937,1.40396825 43.5,1.54206349 L43.3388889,1.91031746 C43.0396825,1.7952381 42.7634921,1.72619048 42.5103175,1.72619048 C42.3031746,1.72619048 42.1420635,1.74920635 42.0269841,1.81825397 C41.9119048,1.88730159 41.865873,1.97936508 41.865873,2.09444444 C41.865873,2.16349206 41.8888889,2.23253968 41.9349206,2.3015873 C41.9809524,2.34761905 42.05,2.41666667 42.1420635,2.46269841 C42.234127,2.50873016 42.418254,2.57777778 42.6714286,2.69285714 C43.0166667,2.83095238 43.2698413,2.94603175 43.3849206,3.08412698 C43.5230159,3.19920635 43.5920635,3.36031746 43.5920635,3.54444444 Z"></path>
                    </g>
                    <g transform="translate(0.000000, 0.230159)" id="Shape">
                        <path d="M2.50873016,1.54206349 C2.50873016,1.95634921 2.37063492,2.25555556 2.09444444,2.48571429 C1.81825397,2.69285714 1.42698413,2.80793651 0.920634921,2.80793651 L0.46031746,2.80793651 L0.46031746,4.37301587 L0,4.37301587 L0,0.368253968 L1.03571429,0.368253968 C2.00238095,0.368253968 2.50873016,0.75952381 2.50873016,1.54206349 Z M0.437301587,2.39365079 L0.851587302,2.39365079 C1.26587302,2.39365079 1.56507937,2.32460317 1.74920635,2.18650794 C1.93333333,2.0484127 2.02539683,1.84126984 2.02539683,1.54206349 C2.02539683,1.28888889 1.93333333,1.08174603 1.77222222,0.943650794 C1.58809524,0.805555556 1.33492063,0.75952381 0.966666667,0.75952381 L0.437301587,0.75952381 L0.437301587,2.39365079 L0.437301587,2.39365079 Z"></path>
                        <path d="M5.61587302,2.87698413 C5.61587302,3.36031746 5.50079365,3.7515873 5.24761905,4.02777778 C4.99444444,4.30396825 4.67222222,4.44206349 4.23492063,4.44206349 C3.95873016,4.44206349 3.72857143,4.37301587 3.52142857,4.25793651 C3.31428571,4.14285714 3.1531746,3.95873016 3.03809524,3.70555556 C2.92301587,3.47539683 2.87698413,3.19920635 2.87698413,2.87698413 C2.87698413,2.39365079 2.99206349,2.00238095 3.2452381,1.72619048 C3.4984127,1.45 3.82063492,1.31190476 4.25793651,1.31190476 C4.67222222,1.31190476 5.01746032,1.45 5.24761905,1.72619048 C5.47777778,2.02539683 5.61587302,2.39365079 5.61587302,2.87698413 Z M3.31428571,2.87698413 C3.31428571,3.26825397 3.38333333,3.54444444 3.54444444,3.7515873 C3.70555556,3.95873016 3.91269841,4.05079365 4.21190476,4.05079365 C4.51111111,4.05079365 4.74126984,3.95873016 4.87936508,3.7515873 C5.04047619,3.54444444 5.10952381,3.26825397 5.10952381,2.87698413 C5.10952381,2.48571429 5.04047619,2.20952381 4.87936508,2.00238095 C4.71825397,1.7952381 4.48809524,1.7031746 4.18888889,1.7031746 C3.88968254,1.7031746 3.65952381,1.7952381 3.52142857,2.00238095 C3.40634921,2.18650794 3.31428571,2.48571429 3.31428571,2.87698413 Z"></path>
                        <path d="M8.65396825,4.37301587 L8.1015873,2.62380952 C8.05555556,2.50873016 8.00952381,2.27857143 7.91746032,1.88730159 L7.89444444,1.88730159 C7.82539683,2.20952381 7.75634921,2.46269841 7.71031746,2.62380952 L7.13492063,4.37301587 L6.60555556,4.37301587 L5.8,1.38095238 L6.28333333,1.38095238 C6.46746032,2.14047619 6.62857143,2.71587302 6.72063492,3.10714286 C6.81269841,3.4984127 6.88174603,3.77460317 6.9047619,3.91269841 L6.92777778,3.91269841 C6.95079365,3.79761905 6.97380952,3.68253968 7.01984127,3.4984127 C7.06587302,3.33730159 7.11190476,3.19920635 7.13492063,3.10714286 L7.68730159,1.38095238 L8.17063492,1.38095238 L8.7,3.10714286 C8.79206349,3.42936508 8.86111111,3.68253968 8.90714286,3.88968254 L8.93015873,3.88968254 C8.93015873,3.82063492 8.9531746,3.72857143 8.99920635,3.59047619 C9.02222222,3.45238095 9.22936508,2.71587302 9.57460317,1.38095238 L10.0349206,1.38095238 L9.20634921,4.37301587 L8.65396825,4.37301587 Z"></path>
                        <path d="M11.6230159,4.41904762 C11.1857143,4.41904762 10.8404762,4.28095238 10.5642857,4.0047619 C10.3111111,3.72857143 10.1730159,3.36031746 10.1730159,2.87698413 C10.1730159,2.39365079 10.2880952,2.00238095 10.518254,1.72619048 C10.7484127,1.45 11.0706349,1.28888889 11.4849206,1.28888889 C11.8531746,1.28888889 12.152381,1.40396825 12.3825397,1.65714286 C12.5896825,1.91031746 12.7047619,2.23253968 12.7047619,2.62380952 L12.7047619,2.9 L10.6333333,2.9 C10.6333333,3.2452381 10.7253968,3.52142857 10.9095238,3.70555556 C11.0706349,3.88968254 11.3238095,3.98174603 11.6230159,3.98174603 C11.9452381,3.98174603 12.2674603,3.91269841 12.5896825,3.77460317 L12.5896825,4.18888889 C12.4285714,4.25793651 12.2674603,4.30396825 12.1293651,4.32698413 C11.9912698,4.35 11.8301587,4.41904762 11.6230159,4.41904762 Z M11.5079365,1.7031746 C11.2777778,1.7031746 11.0706349,1.77222222 10.9325397,1.93333333 C10.7944444,2.09444444 10.702381,2.3015873 10.6793651,2.57777778 L12.2444444,2.57777778 C12.2444444,2.3015873 12.1753968,2.07142857 12.0603175,1.91031746 C11.9222222,1.77222222 11.7380952,1.7031746 11.5079365,1.7031746 Z"></path>
                        <path d="M14.684127,1.31190476 C14.8222222,1.31190476 14.9373016,1.31190476 15.052381,1.33492063 L14.9833333,1.74920635 C14.868254,1.72619048 14.7531746,1.7031746 14.6611111,1.7031746 C14.4079365,1.7031746 14.2007937,1.7952381 14.0396825,2.00238095 C13.8785714,2.20952381 13.7865079,2.43968254 13.7865079,2.73888889 L13.7865079,4.35 L13.3261905,4.35 L13.3261905,1.35793651 L13.6944444,1.35793651 L13.7404762,1.91031746 L13.7634921,1.91031746 C13.8785714,1.72619048 14.0166667,1.56507937 14.1547619,1.45 C14.315873,1.38095238 14.5,1.31190476 14.684127,1.31190476 Z"></path>
                        <path d="M16.6404762,4.41904762 C16.2031746,4.41904762 15.8579365,4.28095238 15.581746,4.0047619 C15.3285714,3.72857143 15.1904762,3.36031746 15.1904762,2.87698413 C15.1904762,2.39365079 15.3055556,2.00238095 15.5357143,1.72619048 C15.765873,1.45 16.0880952,1.28888889 16.502381,1.28888889 C16.8706349,1.28888889 17.1698413,1.40396825 17.4,1.65714286 C17.6071429,1.91031746 17.7222222,2.23253968 17.7222222,2.62380952 L17.7222222,2.9 L15.6507937,2.9 C15.6507937,3.2452381 15.7428571,3.52142857 15.9269841,3.70555556 C16.0880952,3.88968254 16.3412698,3.98174603 16.6404762,3.98174603 C16.9626984,3.98174603 17.2849206,3.91269841 17.6071429,3.77460317 L17.6071429,4.18888889 C17.4460317,4.25793651 17.2849206,4.30396825 17.1468254,4.32698413 C17.0087302,4.41904762 16.8246032,4.41904762 16.6404762,4.41904762 Z M16.502381,1.7031746 C16.2722222,1.7031746 16.0650794,1.77222222 15.9269841,1.93333333 C15.7888889,2.09444444 15.6968254,2.3015873 15.6738095,2.57777778 L17.2388889,2.57777778 C17.2388889,2.3015873 17.1698413,2.07142857 17.0547619,1.91031746 C16.9396825,1.77222222 16.7555556,1.7031746 16.502381,1.7031746 Z"></path>
                        <path d="M20.3920635,3.95873016 L20.3690476,3.95873016 C20.1619048,4.25793651 19.8396825,4.41904762 19.4253968,4.41904762 C19.034127,4.41904762 18.7349206,4.28095238 18.5047619,4.02777778 C18.297619,3.7515873 18.1825397,3.38333333 18.1825397,2.87698413 C18.1825397,2.39365079 18.297619,2.00238095 18.5047619,1.72619048 C18.7119048,1.45 19.034127,1.31190476 19.4253968,1.31190476 C19.8396825,1.31190476 20.1388889,1.45 20.3690476,1.74920635 L20.4150794,1.74920635 L20.3920635,1.54206349 L20.3920635,1.33492063 L20.3920635,0.115079365 L20.852381,0.115079365 L20.852381,4.37301587 L20.484127,4.37301587 L20.3920635,3.95873016 Z M19.4714286,4.05079365 C19.7706349,4.05079365 20.0007937,3.95873016 20.1388889,3.79761905 C20.2769841,3.63650794 20.3460317,3.36031746 20.3460317,2.99206349 L20.3460317,2.9 C20.3460317,2.48571429 20.2769841,2.16349206 20.1388889,2.00238095 C20.0007937,1.81825397 19.7706349,1.72619048 19.4714286,1.72619048 C19.1952381,1.72619048 19.0111111,1.81825397 18.85,2.02539683 C18.7119048,2.23253968 18.6428571,2.53174603 18.6428571,2.9 C18.6428571,3.29126984 18.7119048,3.56746032 18.85,3.77460317 C18.9880952,3.93571429 19.1952381,4.05079365 19.4714286,4.05079365 Z"></path>
                        <path d="M24.5119048,1.33492063 C24.9031746,1.33492063 25.202381,1.47301587 25.4325397,1.74920635 C25.6396825,2.02539683 25.7547619,2.39365079 25.7547619,2.9 C25.7547619,3.38333333 25.6396825,3.77460317 25.4325397,4.05079365 C25.202381,4.32698413 24.9031746,4.46507937 24.5119048,4.46507937 C24.3277778,4.46507937 24.1436508,4.41904762 23.9825397,4.35 C23.8214286,4.28095238 23.6833333,4.16587302 23.568254,4.02777778 L23.5452381,4.02777778 L23.4531746,4.41904762 L23.1309524,4.41904762 L23.1309524,0.161111111 L23.5912698,0.161111111 L23.5912698,1.1968254 C23.5912698,1.42698413 23.5912698,1.63412698 23.568254,1.81825397 L23.5912698,1.81825397 C23.7753968,1.47301587 24.097619,1.33492063 24.5119048,1.33492063 Z M24.4428571,1.7031746 C24.1436508,1.7031746 23.9134921,1.7952381 23.7753968,1.97936508 C23.6373016,2.16349206 23.568254,2.46269841 23.568254,2.87698413 C23.568254,3.29126984 23.6373016,3.59047619 23.7753968,3.77460317 C23.9134921,3.95873016 24.1436508,4.05079365 24.4428571,4.05079365 C24.7190476,4.05079365 24.9261905,3.95873016 25.0642857,3.7515873 C25.202381,3.54444444 25.2714286,3.2452381 25.2714286,2.87698413 C25.2714286,2.48571429 25.202381,2.18650794 25.0642857,2.00238095 C24.9492063,1.7952381 24.7190476,1.7031746 24.4428571,1.7031746 Z"></path>
                        <path d="M25.8698413,1.38095238 L26.3531746,1.38095238 L26.997619,3.08412698 C27.1357143,3.47539683 27.2277778,3.7515873 27.2738095,3.93571429 L27.2968254,3.93571429 C27.3198413,3.84365079 27.365873,3.68253968 27.4349206,3.45238095 C27.5039683,3.22222222 27.7571429,2.53174603 28.1714286,1.38095238 L28.6547619,1.38095238 L27.365873,4.78730159 C27.2277778,5.13253968 27.0896825,5.36269841 26.9285714,5.50079365 C26.7674603,5.63888889 26.5603175,5.70793651 26.3071429,5.70793651 C26.1690476,5.70793651 26.0309524,5.68492063 25.8928571,5.66190476 L25.8928571,5.29365079 C25.9849206,5.31666667 26.1,5.31666667 26.2380952,5.31666667 C26.5603175,5.31666667 26.7674603,5.13253968 26.9055556,4.78730159 L27.0666667,4.35 L25.8698413,1.38095238 Z"></path>
                    </g>
                    <g transform="translate(30.150794, 0.000000)">
                        <path d="M0.115079365,2.41666667 C0.115079365,1.17380952 1.15079365,0.161111111 2.39365079,0.161111111 C3.08412698,0.161111111 3.56746032,0.437301587 3.93571429,0.782539683 L3.4984127,1.21984127 C3.2452381,0.966666667 2.87698413,0.782539683 2.39365079,0.782539683 C1.49603175,0.782539683 0.782539683,1.51904762 0.782539683,2.41666667 C0.782539683,3.31428571 1.49603175,4.05079365 2.39365079,4.05079365 C2.99206349,4.05079365 3.31428571,3.82063492 3.52142857,3.59047619 C3.70555556,3.40634921 3.82063492,3.1531746 3.86666667,2.80793651 L2.39365079,2.80793651 L2.39365079,2.18650794 L4.46507937,2.18650794 C4.48809524,2.3015873 4.48809524,2.43968254 4.48809524,2.57777778 C4.48809524,3.03809524 4.37301587,3.61349206 3.95873016,4.02777778 C3.56746032,4.44206349 3.06111111,4.64920635 2.39365079,4.64920635 C1.17380952,4.67222222 0.115079365,3.65952381 0.115079365,2.41666667 Z" id="Shape"></path>
                        <path d="M6.19126984,1.77222222 C5.38571429,1.77222222 4.74126984,2.39365079 4.74126984,3.22222222 C4.74126984,4.05079365 5.38571429,4.67222222 6.19126984,4.67222222 C6.9968254,4.67222222 7.64126984,4.05079365 7.64126984,3.22222222 C7.66428571,2.39365079 6.9968254,1.77222222 6.19126984,1.77222222 Z M6.19126984,4.0968254 C5.75396825,4.0968254 5.36269841,3.72857143 5.36269841,3.22222222 C5.36269841,2.69285714 5.73095238,2.34761905 6.19126984,2.34761905 C6.62857143,2.34761905 7.01984127,2.71587302 7.01984127,3.22222222 C7.01984127,3.7515873 6.62857143,4.0968254 6.19126984,4.0968254 Z" id="Shape"></path>
                        <path d="M9.36746032,1.77222222 C8.56190476,1.77222222 7.91746032,2.39365079 7.91746032,3.22222222 C7.91746032,4.05079365 8.56190476,4.67222222 9.36746032,4.67222222 C10.1730159,4.67222222 10.8174603,4.05079365 10.8174603,3.22222222 C10.8404762,2.39365079 10.1730159,1.77222222 9.36746032,1.77222222 Z M9.36746032,4.0968254 C8.93015873,4.0968254 8.53888889,3.72857143 8.53888889,3.22222222 C8.53888889,2.69285714 8.90714286,2.34761905 9.36746032,2.34761905 C9.8047619,2.34761905 10.1960317,2.71587302 10.1960317,3.22222222 C10.1960317,3.7515873 9.82777778,4.0968254 9.36746032,4.0968254 Z" id="Shape"></path>
                        <path d="M13.2801587,1.86428571 L13.2801587,2.09444444 L13.2571429,2.09444444 C13.1190476,1.93333333 12.8428571,1.77222222 12.497619,1.77222222 C11.7611111,1.77222222 11.1166667,2.41666667 11.1166667,3.22222222 C11.1166667,4.02777778 11.784127,4.67222222 12.497619,4.67222222 C12.8428571,4.67222222 13.1190476,4.51111111 13.2571429,4.35 L13.2801587,4.35 L13.2801587,4.55714286 C13.2801587,5.10952381 12.9809524,5.40873016 12.497619,5.40873016 C12.1063492,5.40873016 11.8761905,5.13253968 11.7611111,4.90238095 L11.2087302,5.13253968 C11.3698413,5.52380952 11.784127,5.98412698 12.497619,5.98412698 C13.2571429,5.98412698 13.8785714,5.5468254 13.8785714,4.46507937 L13.8785714,1.86428571 L13.2801587,1.86428571 L13.2801587,1.86428571 Z M12.5436508,4.0968254 C12.1063492,4.0968254 11.7380952,3.72857143 11.7380952,3.22222222 C11.7380952,2.71587302 12.1063492,2.34761905 12.5436508,2.34761905 C12.9809524,2.34761905 13.3261905,2.71587302 13.3261905,3.22222222 C13.3261905,3.72857143 12.9809524,4.0968254 12.5436508,4.0968254 Z" id="Shape"></path>
                        <rect id="Rectangle-path" x="14.3388889" y="0.322222222" width="1" height="4.28095238"></rect>
                        <path d="M16.7095238,4.0968254 C16.3873016,4.0968254 16.1571429,3.95873016 15.9960317,3.65952381 L17.9293651,2.85396825 L17.8603175,2.69285714 C17.7452381,2.37063492 17.3769841,1.77222222 16.6174603,1.77222222 C15.8579365,1.77222222 15.2365079,2.37063492 15.2365079,3.22222222 C15.2365079,4.02777778 15.8579365,4.67222222 16.6865079,4.67222222 C17.3539683,4.67222222 17.7452381,4.25793651 17.9063492,4.02777778 L17.4,3.70555556 C17.2619048,3.93571429 17.031746,4.0968254 16.7095238,4.0968254 Z M16.6634921,2.32460317 C16.9166667,2.32460317 17.1238095,2.43968254 17.1928571,2.62380952 L15.9039683,3.1531746 C15.8809524,2.62380952 16.3412698,2.32460317 16.6634921,2.32460317 Z" id="Shape"></path>
                    </g>
                </g>
            </g>
            <g id="Group" transform="translate(215.198413, 0.690476)">
                <g transform="translate(6.904762, 0.000000)" id="Shape">
                    <g transform="translate(0.000000, 12.428571)">
                        <polygon points="20.5071429 15.3746032 23.6603175 5.24761905 17.0777778 0.184126984 0.023015873 16.8936508 18.3436508 16.8936508 20.5071429 15.4436508"></polygon>
                        <polygon points="41.6587302 0.184126984 35.0761905 5.24761905 38.2293651 15.4206349 40.3928571 16.8936508 58.7134921 16.8936508"></polygon>
                    </g>
                    <g transform="translate(18.182540, 0.000000)">
                        <polygon points="20.4150794 6.83571429 13.4412698 6.83571429 11.1857143 0.138095238 8.93015873 6.83571429 1.97936508 6.83571429 7.52619048 11.1166667 5.50079365 17.6761905 11.1857143 13.7865079 16.8706349 17.6761905 14.8452381 11.1166667"></polygon>
                        <polygon points="11.2087302 21.8190476 11.1857143 21.7960317 0.161111111 29.3222222 22.2103175 29.3222222"></polygon>
                    </g>
                </g>
                <g transform="translate(0.000000, 31.531746)" id="Shape">
                    <path d="M0.0920634921,6.0531746 L0.0920634921,4.99444444 L1.88730159,4.99444444 L1.88730159,2.69285714 L3.22222222,2.11746032 L3.22222222,4.99444444 L5.47777778,4.99444444 L5.47777778,6.0531746 L3.22222222,6.0531746 L3.22222222,13.234127 C3.22222222,14.7301587 3.38333333,15.0753968 4.44206349,15.0753968 C4.87936508,15.0753968 5.2015873,15.052381 5.47777778,15.0063492 L5.47777778,16.1571429 C5.08650794,16.2031746 4.62619048,16.2261905 4.21190476,16.2261905 C2.41666667,16.2261905 1.88730159,15.4206349 1.88730159,14.0626984 L1.88730159,6.0531746 L0.0920634921,6.0531746 Z"></path>
                    <path d="M8.30873016,10.8634921 L8.30873016,11.7380952 C8.30873016,13.2801587 8.72301587,15.3515873 10.8404762,15.3515873 C12.497619,15.3515873 13.3261905,14.2928571 13.3031746,12.7738095 L14.7071429,12.7738095 C14.5460317,15.4896825 13.0960317,16.4103175 10.8404762,16.4103175 C8.90714286,16.4103175 6.97380952,15.6277778 6.97380952,12.2444444 L6.97380952,9.48253968 C6.97380952,6.23730159 8.33174603,4.76428571 10.8404762,4.76428571 C14.7071429,4.76428571 14.7071429,7.52619048 14.7071429,10.8634921 L8.30873016,10.8634921 L8.30873016,10.8634921 Z M13.3492063,9.8047619 C13.3492063,7.31904762 12.9579365,5.82301587 10.8174603,5.82301587 C8.67698413,5.82301587 8.28571429,7.31904762 8.28571429,9.8047619 L13.3492063,9.8047619 Z"></path>
                    <path d="M22.0952381,8.21666667 C22.1642857,6.81269841 21.6579365,5.84603175 20.115873,5.84603175 C19.2873016,5.84603175 18.5968254,6.30634921 18.3206349,7.13492063 C18.1365079,7.64126984 17.9984127,9.18333333 17.9984127,10.6563492 C17.9984127,12.681746 17.9984127,15.3515873 20.0698413,15.3515873 C21.8190476,15.3515873 22.0492063,14.2468254 22.118254,12.8888889 L23.4531746,12.8888889 C23.568254,15.9039683 21.4277778,16.4103175 20.3920635,16.4103175 C16.5944444,16.4103175 16.5944444,13.418254 16.5944444,10.6333333 C16.5944444,9.52857143 16.6404762,7.77936508 16.9166667,6.92777778 C17.4920635,5.33968254 18.7579365,4.76428571 20.3,4.76428571 C22.2333333,4.76428571 23.5452381,5.84603175 23.4301587,8.19365079 L22.0952381,8.19365079 L22.0952381,8.21666667 Z"></path>
                    <path d="M25.731746,16.2031746 L25.731746,0.184126984 L27.0666667,0.184126984 L27.0666667,6.37539683 L27.1126984,6.37539683 C27.7571429,5.4547619 28.631746,4.78730159 29.8285714,4.78730159 C32.6134921,4.78730159 32.8896825,6.85873016 32.8896825,8.30873016 L32.8896825,16.2031746 L31.5547619,16.2031746 L31.5547619,8.37777778 C31.5547619,7.06587302 31.0484127,5.84603175 29.4833333,5.84603175 C28.2865079,5.84603175 27.0666667,6.67460317 27.0666667,9.18333333 L27.0666667,16.2261905 L25.731746,16.2261905 L25.731746,16.2031746 Z"></path>
                    <path d="M38.5746032,16.4103175 C36.1579365,16.4103175 35.1912698,15.2365079 35.2142857,12.865873 L36.5722222,12.865873 C36.5722222,14.4079365 36.9174603,15.4206349 38.6436508,15.4206349 C39.9325397,15.4206349 40.5539683,14.684127 40.5539683,13.4412698 C40.5539683,10.518254 35.5134921,11.2777778 35.5134921,7.57222222 C35.5134921,5.50079365 36.9404762,4.78730159 38.8968254,4.78730159 C41.1063492,4.78730159 41.8198413,6.32936508 41.8198413,8.03253968 L40.5079365,8.03253968 C40.4388889,6.60555556 40.0706349,5.86904762 38.5515873,5.86904762 C37.6079365,5.86904762 36.8484127,6.49047619 36.8484127,7.48015873 C36.8484127,10.2650794 41.8888889,9.52857143 41.8888889,13.2801587 C41.865873,15.3515873 40.6460317,16.4103175 38.5746032,16.4103175 Z"></path>
                    <path d="M43.2238095,6.0531746 L43.2238095,4.99444444 L45.0190476,4.99444444 L45.0190476,2.69285714 L46.3539683,2.11746032 L46.3539683,4.99444444 L48.6095238,4.99444444 L48.6095238,6.0531746 L46.3539683,6.0531746 L46.3539683,13.234127 C46.3539683,14.7301587 46.5150794,15.0753968 47.5738095,15.0753968 C48.0111111,15.0753968 48.3333333,15.052381 48.6095238,15.0063492 L48.6095238,16.1571429 C48.218254,16.2031746 47.7579365,16.2261905 47.3436508,16.2261905 C45.5484127,16.2261905 45.0190476,15.4206349 45.0190476,14.0626984 L45.0190476,6.0531746 L43.2238095,6.0531746 Z"></path>
                    <path d="M56.181746,14.8222222 L56.1357143,14.8222222 C55.4222222,15.8809524 54.3404762,16.4103175 52.9595238,16.4103175 C50.9571429,16.4103175 49.8753968,15.052381 49.8753968,13.0960317 C49.8753968,9.16031746 53.834127,9.57460317 56.0896825,9.39047619 L56.0896825,8.46984127 C56.0896825,6.83571429 55.6063492,5.82301587 53.834127,5.82301587 C52.6142857,5.82301587 51.647619,6.42142857 51.647619,7.75634921 L50.2206349,7.75634921 C50.3357143,5.61587302 51.9928571,4.76428571 53.9492063,4.76428571 C55.0769841,4.76428571 57.4246032,4.87936508 57.4246032,7.73333333 L57.4246032,13.3722222 C57.4246032,14.1777778 57.4246032,14.8912698 57.5626984,16.1801587 L56.181746,16.1801587 L56.181746,14.8222222 L56.181746,14.8222222 Z M56.0896825,10.4722222 C54.1793651,10.5412698 51.302381,10.3111111 51.302381,13.05 C51.302381,14.315873 51.9468254,15.3515873 53.3277778,15.3515873 C54.8698413,15.3515873 56.0896825,13.9706349 56.0896825,12.5206349 L56.0896825,10.4722222 Z"></path>
                    <path d="M61.452381,6.51349206 L61.4984127,6.51349206 C62.0507937,5.4547619 63.2246032,4.78730159 64.5825397,4.78730159 L64.5825397,6.1452381 C62.6952381,5.98412698 61.452381,7.11190476 61.452381,8.99920635 L61.452381,16.2031746 L60.1174603,16.2031746 L60.1174603,4.99444444 L61.452381,4.99444444 L61.452381,6.51349206 L61.452381,6.51349206 Z"></path>
                    <path d="M69.047619,16.4103175 C66.6309524,16.4103175 65.6642857,15.2365079 65.6873016,12.865873 L67.0452381,12.865873 C67.0452381,14.4079365 67.3904762,15.4206349 69.1166667,15.4206349 C70.4055556,15.4206349 71.0269841,14.684127 71.0269841,13.4412698 C71.0269841,10.518254 65.9865079,11.2777778 65.9865079,7.57222222 C65.9865079,5.50079365 67.4134921,4.78730159 69.3698413,4.78730159 C71.5793651,4.78730159 72.2928571,6.32936508 72.2928571,8.03253968 L70.9809524,8.03253968 C70.9119048,6.60555556 70.5436508,5.86904762 69.0246032,5.86904762 C68.0809524,5.86904762 67.3214286,6.49047619 67.3214286,7.48015873 C67.3214286,10.2650794 72.3619048,9.52857143 72.3619048,13.2801587 C72.3619048,15.3515873 71.1420635,16.4103175 69.047619,16.4103175 Z"></path>
                </g>
                <path d="M72.4539683,36.3420635 C72.4539683,36.1349206 72.5,35.9277778 72.6150794,35.7436508 C72.7071429,35.5595238 72.8452381,35.4214286 73.0293651,35.3063492 C73.2134921,35.1912698 73.397619,35.1452381 73.6047619,35.1452381 C73.8119048,35.1452381 73.9960317,35.1912698 74.1801587,35.3063492 C74.3642857,35.4214286 74.502381,35.5595238 74.5944444,35.7436508 C74.6865079,35.9277778 74.7555556,36.1349206 74.7555556,36.3420635 C74.7555556,36.5492063 74.7095238,36.7563492 74.6174603,36.9404762 C74.5253968,37.1246032 74.3873016,37.2626984 74.2031746,37.3777778 C74.0190476,37.4928571 73.8349206,37.5388889 73.6277778,37.5388889 C73.4206349,37.5388889 73.2134921,37.4928571 73.052381,37.3777778 C72.868254,37.2626984 72.7301587,37.1246032 72.6380952,36.9404762 C72.5,36.7563492 72.4539683,36.5492063 72.4539683,36.3420635 Z M72.6380952,36.3420635 C72.6380952,36.5261905 72.684127,36.6873016 72.7761905,36.8484127 C72.868254,37.0095238 72.9833333,37.1246032 73.1214286,37.2166667 C73.2595238,37.3087302 73.4206349,37.3547619 73.6047619,37.3547619 C73.7888889,37.3547619 73.95,37.3087302 74.0880952,37.2166667 C74.2261905,37.1246032 74.3642857,37.0095238 74.4333333,36.8484127 C74.5253968,36.6873016 74.5714286,36.5261905 74.5714286,36.3420635 C74.5714286,36.1579365 74.5253968,35.9968254 74.4333333,35.8357143 C74.3412698,35.6746032 74.2261905,35.5595238 74.0880952,35.4674603 C73.95,35.3753968 73.7888889,35.3293651 73.6047619,35.3293651 C73.4436508,35.3293651 73.2825397,35.3753968 73.1214286,35.4674603 C72.9833333,35.5595238 72.8452381,35.6746032 72.7761905,35.8357143 C72.7071429,35.9968254 72.6380952,36.1579365 72.6380952,36.3420635 Z M73.3746032,36.4571429 L73.3746032,37.0095238 L73.1444444,37.0095238 L73.1444444,35.6285714 L73.581746,35.6285714 C73.7428571,35.6285714 73.8809524,35.6746032 73.9730159,35.7436508 C74.0650794,35.8126984 74.1111111,35.9277778 74.1111111,36.0428571 C74.1111111,36.1809524 74.0420635,36.2730159 73.9039683,36.3420635 C74.0420635,36.3880952 74.1111111,36.5031746 74.1111111,36.6642857 L74.1111111,36.7563492 C74.1111111,36.8484127 74.1111111,36.9174603 74.134127,36.9634921 L74.134127,36.9865079 L73.9039683,36.9865079 C73.8809524,36.9404762 73.8809524,36.8714286 73.8809524,36.7793651 C73.8809524,36.6873016 73.8809524,36.618254 73.8809524,36.5952381 C73.8579365,36.5031746 73.7888889,36.434127 73.6738095,36.434127 L73.3746032,36.434127 L73.3746032,36.4571429 Z M73.3746032,36.25 L73.6277778,36.25 C73.6968254,36.25 73.765873,36.2269841 73.8119048,36.2039683 C73.8579365,36.1579365 73.8809524,36.1119048 73.8809524,36.065873 C73.8809524,35.9968254 73.8579365,35.9277778 73.8119048,35.9047619 C73.765873,35.881746 73.6968254,35.8587302 73.581746,35.8587302 L73.3515873,35.8587302 L73.3515873,36.25 L73.3746032,36.25 Z" id="Shape"></path>
            </g>
            <g id="Group">
                <g>
                    <path d="M21.9571429,13.6253968 C21.9571429,13.3031746 19.4484127,12.9579365 16.3642857,12.9579365 C13.2801587,12.9579365 10.7714286,13.3031746 10.7714286,13.6253968 C10.7714286,13.947619 13.2801587,14.2928571 16.3642857,14.2928571 C19.4484127,14.2928571 21.9571429,13.947619 21.9571429,13.6253968 Z" id="Shape"></path>
                    <circle id="Oval" cx="13.947619" cy="3.26825397" r="3.19920635"></circle>
                    <circle id="Oval" cx="18.9190476" cy="7.71031746" r="2.27857143"></circle>
                    <path d="M32.7055556,44.4896825 L22.7626984,20.0698413 L25.6166667,12.5436508 C25.6857143,12.3595238 25.6857143,12.152381 25.5936508,11.968254 C25.5015873,11.784127 25.3404762,11.6460317 25.1563492,11.6 C24.9952381,11.5539683 21.4047619,10.4261905 16.3873016,10.4261905 C16.134127,10.4261905 15.9039683,10.4261905 15.6507937,10.4261905 C15.7428571,10.2190476 15.7888889,9.98888889 15.7888889,9.73571429 C15.7888889,8.74603175 14.9833333,7.91746032 13.9706349,7.91746032 C12.9809524,7.91746032 12.152381,8.72301587 12.152381,9.73571429 C12.152381,10.0579365 12.2444444,10.3801587 12.4055556,10.6333333 C9.5515873,10.9555556 7.71031746,11.5309524 7.5952381,11.5769841 C7.41111111,11.6460317 7.25,11.784127 7.15793651,11.9452381 C7.06587302,12.1293651 7.06587302,12.3365079 7.13492063,12.5206349 L10.0349206,20.0698413 L0.069047619,44.4896825 C-5.47478729e-15,44.6738095 0.023015873,44.8349206 0.023015873,44.8349206 C0.023015873,45.6634921 1.05873016,45.8246032 1.86428571,45.9396825 C2.66984127,46.0547619 3.82063492,46.1698413 5.27063492,46.2619048 C8.23968254,46.4460317 12.1753968,46.5611111 16.3873016,46.5611111 C20.5761905,46.5611111 24.5349206,46.4460317 27.5039683,46.2619048 C28.9539683,46.1698413 30.1047619,46.0547619 30.9103175,45.9396825 C31.7388889,45.8246032 32.7515873,45.6634921 32.7515873,44.8349206 C32.7515873,44.8579365 32.7515873,44.6507937 32.7055556,44.4896825 Z M16.3873016,45.1111111 C8.30873016,45.1111111 3.2452381,44.7428571 1.65714286,44.4436508 L11.5079365,20.3920635 C11.5769841,20.2309524 11.5769841,20.0238095 11.5079365,19.8626984 L8.79206349,12.7968254 C10.0809524,12.4746032 12.8888889,11.8992063 16.3642857,11.8992063 C19.8396825,11.8992063 22.6706349,12.4746032 23.9595238,12.7968254 L21.2896825,19.8396825 C21.2206349,20.0007937 21.2206349,20.2079365 21.2896825,20.3690476 L31.0944444,44.4666667 C29.5293651,44.7428571 24.465873,45.1111111 16.3873016,45.1111111 Z" id="Shape"></path>
                    <path d="M28.9309524,43.2238095 L26.2380952,36.5952381 L26.2380952,35.2833333 C26.2380952,34.1785714 25.8468254,33.1428571 25.0642857,32.3833333 C24.8571429,32.1761905 24.65,31.9920635 24.4198413,31.8309524 C24.4198413,31.8309524 19.7936508,20.2309524 19.7936508,20.2309524 C19.7706349,20.2079365 19.7706349,20.1388889 19.7246032,20.1388889 C18.8039683,20.2309524 17.6301587,20.2769841 16.3873016,20.2769841 C15.1444444,20.2769841 13.9706349,20.2079365 13.05,20.1388889 C13.0039683,20.1388889 12.9809524,20.1849206 12.9579365,20.2309524 C12.9579365,20.2309524 9.50555556,28.8619048 9.50555556,28.8619048 C8.4468254,29.5984127 7.82539683,30.8412698 7.82539683,32.2222222 L7.82539683,33.3269841 L3.84365079,43.2468254 C4.51111111,43.5 8.58492063,43.684127 9.18333333,43.6150794 L9.18333333,32.2222222 C9.18333333,30.7261905 10.3571429,29.5063492 11.8531746,29.5063492 C13.3492063,29.5063492 14.5,30.7261905 14.5,32.2222222 L14.5,36.434127 C13.1420635,37.0325397 12.152381,38.4825397 12.152381,40.1626984 L12.152381,43.7761905 L13.5103175,43.7761905 L13.5103175,40.1626984 C13.5103175,38.7357143 14.684127,37.5849206 16.1111111,37.5849206 C17.5380952,37.5849206 18.6888889,38.7357143 18.6888889,40.1626984 L18.6888889,43.7761905 L20.1619048,43.7761905 L20.1619048,40.1626984 C20.1619048,39.3571429 19.9087302,38.597619 19.4944444,37.9761905 C19.4944444,37.0785714 19.4944444,35.2142857 19.4944444,35.2373016 C19.5865079,33.8333333 20.7603175,32.7055556 22.1873016,32.7055556 C23.6142857,32.7055556 24.7880952,33.8103175 24.8801587,35.1912698 C24.8801587,35.168254 24.8801587,43.4309524 24.8801587,43.6150794 C25.2253968,43.5690476 28.3555556,43.4309524 28.9309524,43.2238095 Z M19.7936508,31.9460317 C19.3563492,32.2222222 19.0111111,32.6134921 18.7119048,33.0507937 C18.4357143,33.4650794 18.2515873,33.9253968 18.1365079,34.431746 C18.0674603,34.7079365 18.0444444,35.0071429 18.0444444,35.2833333 L18.0444444,36.5952381 C17.4230159,36.2960317 16.7785714,36.1119048 16.0880952,36.1119048 C16.0190476,36.1119048 15.8349206,36.1119048 15.8349206,36.1119048 L15.8349206,32.1992063 C15.8349206,31.1404762 15.4666667,30.0126984 14.5920635,29.2761905 L14.5920635,27.2738095 C14.5920635,25.7777778 15.9960317,24.465873 17.4920635,24.465873 C18.9880952,24.465873 20.3920635,25.7777778 20.3920635,27.2738095 L20.3920635,31.5777778 L20.3920635,31.6238095 L20.3920635,31.6238095 C20.2079365,31.6928571 20.0007937,31.8309524 19.7936508,31.9460317 Z" id="Shape"></path>
                    <circle id="Oval" transform="translate(10.656566, 32.890463) rotate(-0.212952) translate(-10.656566, -32.890463) " cx="10.6565657" cy="32.8904635" r="1"></circle>
                    <circle id="Oval" transform="translate(12.958204, 32.890594) rotate(-0.232270) translate(-12.958204, -32.890594) " cx="12.9582038" cy="32.8905944" r="1"></circle>
                    <circle id="Oval" transform="translate(16.410628, 27.504755) rotate(-0.217561) translate(-16.410628, -27.504755) " cx="16.4106276" cy="27.504755" r="1"></circle>
                    <circle id="Oval" transform="translate(18.735248, 27.504654) rotate(-0.217558) translate(-18.735248, -27.504654) " cx="18.7352476" cy="27.5046535" r="1"></circle>
                    <circle id="Oval" transform="translate(21.082826, 35.974661) rotate(-0.222185) translate(-21.082826, -35.974661) " cx="21.0828256" cy="35.9746612" r="1"></circle>
                    <circle id="Oval" transform="translate(23.384479, 35.974749) rotate(-0.232311) translate(-23.384479, -35.974749) " cx="23.3844787" cy="35.9747491" r="1"></circle>
                    <circle id="Oval" transform="translate(15.052675, 40.002481) rotate(-0.226037) translate(-15.052675, -40.002481) " cx="15.0526749" cy="40.0024813" r="1"></circle>
                    <circle id="Oval" transform="translate(17.216208, 40.002617) rotate(-0.240698) translate(-17.216208, -40.002617) " cx="17.2162083" cy="40.0026172" r="1"></circle>
                </g>
                <path d="M17.584127,30.2888889 C17.1468254,30.2888889 16.6865079,30.1738095 16.2952381,29.9206349 C16.1111111,29.8055556 16.0420635,29.552381 16.1571429,29.368254 C16.2722222,29.184127 16.5253968,29.1150794 16.7095238,29.2301587 C17.2388889,29.552381 17.9063492,29.552381 18.4126984,29.2301587 C18.5968254,29.1150794 18.85,29.1611111 18.9650794,29.368254 C19.0801587,29.552381 19.034127,29.8055556 18.8269841,29.9206349 C18.481746,30.1507937 18.0444444,30.2888889 17.584127,30.2888889 Z" id="Shape"></path>
                <path d="M11.8301587,35.7436508 C11.3928571,35.7436508 10.9325397,35.6285714 10.5412698,35.3753968 C10.3571429,35.2603175 10.2880952,35.0071429 10.4031746,34.8230159 C10.518254,34.6388889 10.7714286,34.5698413 10.9555556,34.6849206 C11.4849206,35.0071429 12.152381,35.0071429 12.6587302,34.6849206 C12.8428571,34.5698413 13.0960317,34.615873 13.2111111,34.8230159 C13.3261905,35.0071429 13.2801587,35.2603175 13.0730159,35.3753968 C12.7277778,35.6285714 12.2904762,35.7436508 11.8301587,35.7436508 Z" id="Shape"></path>
                <path d="M16.134127,42.6944444 C15.6968254,42.6944444 15.2365079,42.5793651 14.8452381,42.3261905 C14.6611111,42.2111111 14.5920635,41.9579365 14.7071429,41.7738095 C14.8222222,41.5896825 15.0753968,41.5206349 15.2595238,41.6357143 C15.7888889,41.9579365 16.4563492,41.9579365 16.9626984,41.6357143 C17.1468254,41.5206349 17.4,41.5666667 17.5150794,41.7738095 C17.6301587,41.9579365 17.584127,42.2111111 17.3769841,42.3261905 C17.031746,42.5793651 16.5944444,42.6944444 16.134127,42.6944444 Z" id="Shape"></path>
                <path d="M22.2563492,38.8507937 C21.8190476,38.8507937 21.3587302,38.7357143 20.9674603,38.4825397 C20.7833333,38.3674603 20.7142857,38.1142857 20.8293651,37.9301587 C20.9444444,37.7460317 21.197619,37.6769841 21.381746,37.7920635 C21.9111111,38.1142857 22.5785714,38.1142857 23.0849206,37.7920635 C23.2690476,37.6769841 23.5222222,37.7230159 23.6373016,37.9301587 C23.752381,38.1142857 23.7063492,38.3674603 23.4992063,38.4825397 C23.1309524,38.7357143 22.6936508,38.8507937 22.2563492,38.8507937 Z" id="Shape"></path>
            </g>
        </g>
    </g>
</svg>